<?xml version="1.0" encoding="utf-8" standalone="no"?>
<!DOCTYPE svg PUBLIC "-//W3C//DTD SVG 1.1//EN"
  "http://www.w3.org/Graphics/SVG/1.1/DTD/svg11.dtd">
<!-- Created with matplotlib (http://matplotlib.org/) -->
<svg height="345pt" version="1.1" viewBox="0 0 460 345" width="460pt" xmlns="http://www.w3.org/2000/svg" xmlns:xlink="http://www.w3.org/1999/xlink">
 <defs>
  <style type="text/css">
*{stroke-linecap:butt;stroke-linejoin:round;}
  </style>
 </defs>
 <g id="figure_1">
  <g id="patch_1">
   <path d="M 0 345.6 
L 460.8 345.6 
L 460.8 0 
L 0 0 
z
" style="fill:#ffffff;"/>
  </g>
  <g id="axes_1">
   <g id="patch_2">
    <path d="M 57.6 162.432 
L 135.234783 162.432 
L 135.234783 41.472 
L 57.6 41.472 
z
" style="fill:#ffffff;"/>
   </g>
   <g id="patch_3">
    <path clip-path="url(#pa5913833e5)" d="M 61.128854 162.432 
L 64.657654 162.432 
L 64.657654 108.247951 
L 61.128854 108.247951 
z
" style="fill:#1f77b4;"/>
   </g>
   <g id="patch_4">
    <path clip-path="url(#pa5913833e5)" d="M 64.657654 162.432 
L 68.186455 162.432 
L 68.186455 160.076172 
L 64.657654 160.076172 
z
" style="fill:#1f77b4;"/>
   </g>
   <g id="patch_5">
    <path clip-path="url(#pa5913833e5)" d="M 68.186455 162.432 
L 71.715255 162.432 
L 71.715255 160.076172 
L 68.186455 160.076172 
z
" style="fill:#1f77b4;"/>
   </g>
   <g id="patch_6">
    <path clip-path="url(#pa5913833e5)" d="M 71.715255 162.432 
L 75.244056 162.432 
L 75.244056 161.254086 
L 71.715255 161.254086 
z
" style="fill:#1f77b4;"/>
   </g>
   <g id="patch_7">
    <path clip-path="url(#pa5913833e5)" d="M 75.244056 162.432 
L 78.772856 162.432 
L 78.772856 161.960834 
L 75.244056 161.960834 
z
" style="fill:#1f77b4;"/>
   </g>
   <g id="patch_8">
    <path clip-path="url(#pa5913833e5)" d="M 78.772856 162.432 
L 82.301657 162.432 
L 82.301657 162.196417 
L 78.772856 162.196417 
z
" style="fill:#1f77b4;"/>
   </g>
   <g id="patch_9">
    <path clip-path="url(#pa5913833e5)" d="M 82.301657 162.432 
L 85.830458 162.432 
L 85.830458 161.489669 
L 82.301657 161.489669 
z
" style="fill:#1f77b4;"/>
   </g>
   <g id="patch_10">
    <path clip-path="url(#pa5913833e5)" d="M 85.830458 162.432 
L 89.359258 162.432 
L 89.359258 162.196417 
L 85.830458 162.196417 
z
" style="fill:#1f77b4;"/>
   </g>
   <g id="patch_11">
    <path clip-path="url(#pa5913833e5)" d="M 89.359258 162.432 
L 92.888059 162.432 
L 92.888059 161.960834 
L 89.359258 161.960834 
z
" style="fill:#1f77b4;"/>
   </g>
   <g id="patch_12">
    <path clip-path="url(#pa5913833e5)" d="M 92.888059 162.432 
L 96.416859 162.432 
L 96.416859 162.196417 
L 92.888059 162.196417 
z
" style="fill:#1f77b4;"/>
   </g>
   <g id="patch_13">
    <path clip-path="url(#pa5913833e5)" d="M 96.416859 162.432 
L 99.94566 162.432 
L 99.94566 161.725252 
L 96.416859 161.725252 
z
" style="fill:#1f77b4;"/>
   </g>
   <g id="patch_14">
    <path clip-path="url(#pa5913833e5)" d="M 99.94566 162.432 
L 103.47446 162.432 
L 103.47446 162.432 
L 99.94566 162.432 
z
" style="fill:#1f77b4;"/>
   </g>
   <g id="patch_15">
    <path clip-path="url(#pa5913833e5)" d="M 103.47446 162.432 
L 107.003261 162.432 
L 107.003261 161.489669 
L 103.47446 161.489669 
z
" style="fill:#1f77b4;"/>
   </g>
   <g id="patch_16">
    <path clip-path="url(#pa5913833e5)" d="M 107.003261 162.432 
L 110.532061 162.432 
L 110.532061 161.960834 
L 107.003261 161.960834 
z
" style="fill:#1f77b4;"/>
   </g>
   <g id="patch_17">
    <path clip-path="url(#pa5913833e5)" d="M 110.532061 162.432 
L 114.060862 162.432 
L 114.060862 160.547337 
L 110.532061 160.547337 
z
" style="fill:#1f77b4;"/>
   </g>
   <g id="patch_18">
    <path clip-path="url(#pa5913833e5)" d="M 114.060862 162.432 
L 117.589662 162.432 
L 117.589662 161.254086 
L 114.060862 161.254086 
z
" style="fill:#1f77b4;"/>
   </g>
   <g id="patch_19">
    <path clip-path="url(#pa5913833e5)" d="M 117.589662 162.432 
L 121.118463 162.432 
L 121.118463 160.547337 
L 117.589662 160.547337 
z
" style="fill:#1f77b4;"/>
   </g>
   <g id="patch_20">
    <path clip-path="url(#pa5913833e5)" d="M 121.118463 162.432 
L 124.647263 162.432 
L 124.647263 159.369423 
L 121.118463 159.369423 
z
" style="fill:#1f77b4;"/>
   </g>
   <g id="patch_21">
    <path clip-path="url(#pa5913833e5)" d="M 124.647263 162.432 
L 128.176064 162.432 
L 128.176064 158.898258 
L 124.647263 158.898258 
z
" style="fill:#1f77b4;"/>
   </g>
   <g id="patch_22">
    <path clip-path="url(#pa5913833e5)" d="M 128.176064 162.432 
L 131.704865 162.432 
L 131.704865 120.969423 
L 128.176064 120.969423 
z
" style="fill:#1f77b4;"/>
   </g>
   <g id="matplotlib.axis_1">
    <g id="xtick_1">
     <g id="line2d_1">
      <defs>
       <path d="M 0 0 
L 0 3.5 
" id="m198d140be5" style="stroke:#000000;stroke-width:0.8;"/>
      </defs>
      <g>
       <use style="stroke:#000000;stroke-width:0.8;" x="61.128854" xlink:href="#m198d140be5" y="162.432"/>
      </g>
     </g>
    </g>
    <g id="xtick_2">
     <g id="line2d_2">
      <g>
       <use style="stroke:#000000;stroke-width:0.8;" x="131.705954" xlink:href="#m198d140be5" y="162.432"/>
      </g>
     </g>
    </g>
   </g>
   <g id="matplotlib.axis_2">
    <g id="ytick_1">
     <g id="line2d_3">
      <defs>
       <path d="M 0 0 
L -3.5 0 
" id="m0801c6b9f7" style="stroke:#000000;stroke-width:0.8;"/>
      </defs>
      <g>
       <use style="stroke:#000000;stroke-width:0.8;" x="57.6" xlink:href="#m0801c6b9f7" y="162.432"/>
      </g>
     </g>
     <g id="text_1">
      <!-- 0 -->
      <defs>
       <path d="M 31.78125 66.40625 
Q 24.171875 66.40625 20.328125 58.90625 
Q 16.5 51.421875 16.5 36.375 
Q 16.5 21.390625 20.328125 13.890625 
Q 24.171875 6.390625 31.78125 6.390625 
Q 39.453125 6.390625 43.28125 13.890625 
Q 47.125 21.390625 47.125 36.375 
Q 47.125 51.421875 43.28125 58.90625 
Q 39.453125 66.40625 31.78125 66.40625 
M 31.78125 74.21875 
Q 44.046875 74.21875 50.515625 64.515625 
Q 56.984375 54.828125 56.984375 36.375 
Q 56.984375 17.96875 50.515625 8.265625 
Q 44.046875 -1.421875 31.78125 -1.421875 
Q 19.53125 -1.421875 13.0625 8.265625 
Q 6.59375 17.96875 6.59375 36.375 
Q 6.59375 54.828125 13.0625 64.515625 
Q 19.53125 74.21875 31.78125 74.21875 
" id="DejaVuSans-30"/>
      </defs>
      <g transform="translate(44.2375 166.231219)scale(0.1 -0.1)">
       <use xlink:href="#DejaVuSans-30"/>
      </g>
     </g>
    </g>
    <g id="ytick_2">
     <g id="line2d_4">
      <g>
       <use style="stroke:#000000;stroke-width:0.8;" x="57.6" xlink:href="#m0801c6b9f7" y="138.873718"/>
      </g>
     </g>
     <g id="text_2">
      <!-- 100 -->
      <defs>
       <path d="M 12.40625 8.296875 
L 28.515625 8.296875 
L 28.515625 63.921875 
L 10.984375 60.40625 
L 10.984375 69.390625 
L 28.421875 72.90625 
L 38.28125 72.90625 
L 38.28125 8.296875 
L 54.390625 8.296875 
L 54.390625 0 
L 12.40625 0 
z
" id="DejaVuSans-31"/>
      </defs>
      <g transform="translate(31.5125 142.672937)scale(0.1 -0.1)">
       <use xlink:href="#DejaVuSans-31"/>
       <use x="63.623047" xlink:href="#DejaVuSans-30"/>
       <use x="127.246094" xlink:href="#DejaVuSans-30"/>
      </g>
     </g>
    </g>
    <g id="ytick_3">
     <g id="line2d_5">
      <g>
       <use style="stroke:#000000;stroke-width:0.8;" x="57.6" xlink:href="#m0801c6b9f7" y="115.315436"/>
      </g>
     </g>
     <g id="text_3">
      <!-- 200 -->
      <defs>
       <path d="M 19.1875 8.296875 
L 53.609375 8.296875 
L 53.609375 0 
L 7.328125 0 
L 7.328125 8.296875 
Q 12.9375 14.109375 22.625 23.890625 
Q 32.328125 33.6875 34.8125 36.53125 
Q 39.546875 41.84375 41.421875 45.53125 
Q 43.3125 49.21875 43.3125 52.78125 
Q 43.3125 58.59375 39.234375 62.25 
Q 35.15625 65.921875 28.609375 65.921875 
Q 23.96875 65.921875 18.8125 64.3125 
Q 13.671875 62.703125 7.8125 59.421875 
L 7.8125 69.390625 
Q 13.765625 71.78125 18.9375 73 
Q 24.125 74.21875 28.421875 74.21875 
Q 39.75 74.21875 46.484375 68.546875 
Q 53.21875 62.890625 53.21875 53.421875 
Q 53.21875 48.921875 51.53125 44.890625 
Q 49.859375 40.875 45.40625 35.40625 
Q 44.1875 33.984375 37.640625 27.21875 
Q 31.109375 20.453125 19.1875 8.296875 
" id="DejaVuSans-32"/>
      </defs>
      <g transform="translate(31.5125 119.114654)scale(0.1 -0.1)">
       <use xlink:href="#DejaVuSans-32"/>
       <use x="63.623047" xlink:href="#DejaVuSans-30"/>
       <use x="127.246094" xlink:href="#DejaVuSans-30"/>
      </g>
     </g>
    </g>
    <g id="ytick_4">
     <g id="line2d_6">
      <g>
       <use style="stroke:#000000;stroke-width:0.8;" x="57.6" xlink:href="#m0801c6b9f7" y="91.757153"/>
      </g>
     </g>
     <g id="text_4">
      <!-- 300 -->
      <defs>
       <path d="M 40.578125 39.3125 
Q 47.65625 37.796875 51.625 33 
Q 55.609375 28.21875 55.609375 21.1875 
Q 55.609375 10.40625 48.1875 4.484375 
Q 40.765625 -1.421875 27.09375 -1.421875 
Q 22.515625 -1.421875 17.65625 -0.515625 
Q 12.796875 0.390625 7.625 2.203125 
L 7.625 11.71875 
Q 11.71875 9.328125 16.59375 8.109375 
Q 21.484375 6.890625 26.8125 6.890625 
Q 36.078125 6.890625 40.9375 10.546875 
Q 45.796875 14.203125 45.796875 21.1875 
Q 45.796875 27.640625 41.28125 31.265625 
Q 36.765625 34.90625 28.71875 34.90625 
L 20.21875 34.90625 
L 20.21875 43.015625 
L 29.109375 43.015625 
Q 36.375 43.015625 40.234375 45.921875 
Q 44.09375 48.828125 44.09375 54.296875 
Q 44.09375 59.90625 40.109375 62.90625 
Q 36.140625 65.921875 28.71875 65.921875 
Q 24.65625 65.921875 20.015625 65.03125 
Q 15.375 64.15625 9.8125 62.3125 
L 9.8125 71.09375 
Q 15.4375 72.65625 20.34375 73.4375 
Q 25.25 74.21875 29.59375 74.21875 
Q 40.828125 74.21875 47.359375 69.109375 
Q 53.90625 64.015625 53.90625 55.328125 
Q 53.90625 49.265625 50.4375 45.09375 
Q 46.96875 40.921875 40.578125 39.3125 
" id="DejaVuSans-33"/>
      </defs>
      <g transform="translate(31.5125 95.556372)scale(0.1 -0.1)">
       <use xlink:href="#DejaVuSans-33"/>
       <use x="63.623047" xlink:href="#DejaVuSans-30"/>
       <use x="127.246094" xlink:href="#DejaVuSans-30"/>
      </g>
     </g>
    </g>
    <g id="ytick_5">
     <g id="line2d_7">
      <g>
       <use style="stroke:#000000;stroke-width:0.8;" x="57.6" xlink:href="#m0801c6b9f7" y="68.198871"/>
      </g>
     </g>
     <g id="text_5">
      <!-- 400 -->
      <defs>
       <path d="M 37.796875 64.3125 
L 12.890625 25.390625 
L 37.796875 25.390625 
z
M 35.203125 72.90625 
L 47.609375 72.90625 
L 47.609375 25.390625 
L 58.015625 25.390625 
L 58.015625 17.1875 
L 47.609375 17.1875 
L 47.609375 0 
L 37.796875 0 
L 37.796875 17.1875 
L 4.890625 17.1875 
L 4.890625 26.703125 
z
" id="DejaVuSans-34"/>
      </defs>
      <g transform="translate(31.5125 71.99809)scale(0.1 -0.1)">
       <use xlink:href="#DejaVuSans-34"/>
       <use x="63.623047" xlink:href="#DejaVuSans-30"/>
       <use x="127.246094" xlink:href="#DejaVuSans-30"/>
      </g>
     </g>
    </g>
    <g id="ytick_6">
     <g id="line2d_8">
      <g>
       <use style="stroke:#000000;stroke-width:0.8;" x="57.6" xlink:href="#m0801c6b9f7" y="44.640589"/>
      </g>
     </g>
     <g id="text_6">
      <!-- 500 -->
      <defs>
       <path d="M 10.796875 72.90625 
L 49.515625 72.90625 
L 49.515625 64.59375 
L 19.828125 64.59375 
L 19.828125 46.734375 
Q 21.96875 47.46875 24.109375 47.828125 
Q 26.265625 48.1875 28.421875 48.1875 
Q 40.625 48.1875 47.75 41.5 
Q 54.890625 34.8125 54.890625 23.390625 
Q 54.890625 11.625 47.5625 5.09375 
Q 40.234375 -1.421875 26.90625 -1.421875 
Q 22.3125 -1.421875 17.546875 -0.640625 
Q 12.796875 0.140625 7.71875 1.703125 
L 7.71875 11.625 
Q 12.109375 9.234375 16.796875 8.0625 
Q 21.484375 6.890625 26.703125 6.890625 
Q 35.15625 6.890625 40.078125 11.328125 
Q 45.015625 15.765625 45.015625 23.390625 
Q 45.015625 31 40.078125 35.4375 
Q 35.15625 39.890625 26.703125 39.890625 
Q 22.75 39.890625 18.8125 39.015625 
Q 14.890625 38.140625 10.796875 36.28125 
z
" id="DejaVuSans-35"/>
      </defs>
      <g transform="translate(31.5125 48.439808)scale(0.1 -0.1)">
       <use xlink:href="#DejaVuSans-35"/>
       <use x="63.623047" xlink:href="#DejaVuSans-30"/>
       <use x="127.246094" xlink:href="#DejaVuSans-30"/>
      </g>
     </g>
    </g>
   </g>
   <g id="patch_23">
    <path d="M 57.6 162.432 
L 57.6 41.472 
" style="fill:none;stroke:#000000;stroke-linecap:square;stroke-linejoin:miter;stroke-width:0.8;"/>
   </g>
   <g id="patch_24">
    <path d="M 135.234783 162.432 
L 135.234783 41.472 
" style="fill:none;stroke:#000000;stroke-linecap:square;stroke-linejoin:miter;stroke-width:0.8;"/>
   </g>
   <g id="patch_25">
    <path d="M 57.6 162.432 
L 135.234783 162.432 
" style="fill:none;stroke:#000000;stroke-linecap:square;stroke-linejoin:miter;stroke-width:0.8;"/>
   </g>
   <g id="patch_26">
    <path d="M 57.6 41.472 
L 135.234783 41.472 
" style="fill:none;stroke:#000000;stroke-linecap:square;stroke-linejoin:miter;stroke-width:0.8;"/>
   </g>
   <g id="text_7">
    <!-- ALB -->
    <defs>
     <path d="M 34.1875 63.1875 
L 20.796875 26.90625 
L 47.609375 26.90625 
z
M 28.609375 72.90625 
L 39.796875 72.90625 
L 67.578125 0 
L 57.328125 0 
L 50.6875 18.703125 
L 17.828125 18.703125 
L 11.1875 0 
L 0.78125 0 
z
" id="DejaVuSans-41"/>
     <path d="M 9.8125 72.90625 
L 19.671875 72.90625 
L 19.671875 8.296875 
L 55.171875 8.296875 
L 55.171875 0 
L 9.8125 0 
z
" id="DejaVuSans-4c"/>
     <path d="M 19.671875 34.8125 
L 19.671875 8.109375 
L 35.5 8.109375 
Q 43.453125 8.109375 47.28125 11.40625 
Q 51.125 14.703125 51.125 21.484375 
Q 51.125 28.328125 47.28125 31.5625 
Q 43.453125 34.8125 35.5 34.8125 
z
M 19.671875 64.796875 
L 19.671875 42.828125 
L 34.28125 42.828125 
Q 41.5 42.828125 45.03125 45.53125 
Q 48.578125 48.25 48.578125 53.8125 
Q 48.578125 59.328125 45.03125 62.0625 
Q 41.5 64.796875 34.28125 64.796875 
z
M 9.8125 72.90625 
L 35.015625 72.90625 
Q 46.296875 72.90625 52.390625 68.21875 
Q 58.5 63.53125 58.5 54.890625 
Q 58.5 48.1875 55.375 44.234375 
Q 52.25 40.28125 46.1875 39.3125 
Q 53.46875 37.75 57.5 32.78125 
Q 61.53125 27.828125 61.53125 20.40625 
Q 61.53125 10.640625 54.890625 5.3125 
Q 48.25 0 35.984375 0 
L 9.8125 0 
z
" id="DejaVuSans-42"/>
    </defs>
    <g transform="translate(84.853329 35.472)scale(0.12 -0.12)">
     <use xlink:href="#DejaVuSans-41"/>
     <use x="68.408203" xlink:href="#DejaVuSans-4c"/>
     <use x="124.121094" xlink:href="#DejaVuSans-42"/>
    </g>
   </g>
  </g>
  <g id="axes_2">
   <g id="patch_27">
    <path d="M 150.761739 162.432 
L 228.396522 162.432 
L 228.396522 41.472 
L 150.761739 41.472 
z
" style="fill:#ffffff;"/>
   </g>
   <g id="patch_28">
    <path clip-path="url(#pf903758ba7)" d="M 154.290593 162.432 
L 157.819447 162.432 
L 157.819447 55.712982 
L 154.290593 55.712982 
z
" style="fill:#1f77b4;"/>
   </g>
   <g id="patch_29">
    <path clip-path="url(#pf903758ba7)" d="M 157.819447 162.432 
L 161.3483 162.432 
L 161.3483 159.840589 
L 157.819447 159.840589 
z
" style="fill:#1f77b4;"/>
   </g>
   <g id="patch_30">
    <path clip-path="url(#pf903758ba7)" d="M 161.3483 162.432 
L 164.877154 162.432 
L 164.877154 160.78292 
L 161.3483 160.78292 
z
" style="fill:#1f77b4;"/>
   </g>
   <g id="patch_31">
    <path clip-path="url(#pf903758ba7)" d="M 164.877154 162.432 
L 168.406008 162.432 
L 168.406008 161.725252 
L 164.877154 161.725252 
z
" style="fill:#1f77b4;"/>
   </g>
   <g id="patch_32">
    <path clip-path="url(#pf903758ba7)" d="M 168.406008 162.432 
L 171.934862 162.432 
L 171.934862 162.432 
L 168.406008 162.432 
z
" style="fill:#1f77b4;"/>
   </g>
   <g id="patch_33">
    <path clip-path="url(#pf903758ba7)" d="M 171.934862 162.432 
L 175.463715 162.432 
L 175.463715 162.432 
L 171.934862 162.432 
z
" style="fill:#1f77b4;"/>
   </g>
   <g id="patch_34">
    <path clip-path="url(#pf903758ba7)" d="M 175.463715 162.432 
L 178.992569 162.432 
L 178.992569 162.196417 
L 175.463715 162.196417 
z
" style="fill:#1f77b4;"/>
   </g>
   <g id="patch_35">
    <path clip-path="url(#pf903758ba7)" d="M 178.992569 162.432 
L 182.521423 162.432 
L 182.521423 161.960834 
L 178.992569 161.960834 
z
" style="fill:#1f77b4;"/>
   </g>
   <g id="patch_36">
    <path clip-path="url(#pf903758ba7)" d="M 182.521423 162.432 
L 186.050277 162.432 
L 186.050277 162.432 
L 182.521423 162.432 
z
" style="fill:#1f77b4;"/>
   </g>
   <g id="patch_37">
    <path clip-path="url(#pf903758ba7)" d="M 186.050277 162.432 
L 189.57913 162.432 
L 189.57913 162.196417 
L 186.050277 162.196417 
z
" style="fill:#1f77b4;"/>
   </g>
   <g id="patch_38">
    <path clip-path="url(#pf903758ba7)" d="M 189.57913 162.432 
L 193.107984 162.432 
L 193.107984 162.432 
L 189.57913 162.432 
z
" style="fill:#1f77b4;"/>
   </g>
   <g id="patch_39">
    <path clip-path="url(#pf903758ba7)" d="M 193.107984 162.432 
L 196.636838 162.432 
L 196.636838 161.960834 
L 193.107984 161.960834 
z
" style="fill:#1f77b4;"/>
   </g>
   <g id="patch_40">
    <path clip-path="url(#pf903758ba7)" d="M 196.636838 162.432 
L 200.165692 162.432 
L 200.165692 162.196417 
L 196.636838 162.196417 
z
" style="fill:#1f77b4;"/>
   </g>
   <g id="patch_41">
    <path clip-path="url(#pf903758ba7)" d="M 200.165692 162.432 
L 203.694545 162.432 
L 203.694545 162.432 
L 200.165692 162.432 
z
" style="fill:#1f77b4;"/>
   </g>
   <g id="patch_42">
    <path clip-path="url(#pf903758ba7)" d="M 203.694545 162.432 
L 207.223399 162.432 
L 207.223399 162.196417 
L 203.694545 162.196417 
z
" style="fill:#1f77b4;"/>
   </g>
   <g id="patch_43">
    <path clip-path="url(#pf903758ba7)" d="M 207.223399 162.432 
L 210.752253 162.432 
L 210.752253 162.196417 
L 207.223399 162.196417 
z
" style="fill:#1f77b4;"/>
   </g>
   <g id="patch_44">
    <path clip-path="url(#pf903758ba7)" d="M 210.752253 162.432 
L 214.281107 162.432 
L 214.281107 162.196417 
L 210.752253 162.196417 
z
" style="fill:#1f77b4;"/>
   </g>
   <g id="patch_45">
    <path clip-path="url(#pf903758ba7)" d="M 214.281107 162.432 
L 217.80996 162.432 
L 217.80996 162.196417 
L 214.281107 162.196417 
z
" style="fill:#1f77b4;"/>
   </g>
   <g id="patch_46">
    <path clip-path="url(#pf903758ba7)" d="M 217.80996 162.432 
L 221.338814 162.432 
L 221.338814 161.725252 
L 217.80996 161.725252 
z
" style="fill:#1f77b4;"/>
   </g>
   <g id="patch_47">
    <path clip-path="url(#pf903758ba7)" d="M 221.338814 162.432 
L 224.867668 162.432 
L 224.867668 159.605006 
L 221.338814 159.605006 
z
" style="fill:#1f77b4;"/>
   </g>
   <g id="matplotlib.axis_3">
    <g id="xtick_3">
     <g id="line2d_9">
      <g>
       <use style="stroke:#000000;stroke-width:0.8;" x="154.290593" xlink:href="#m198d140be5" y="162.432"/>
      </g>
     </g>
    </g>
    <g id="xtick_4">
     <g id="line2d_10">
      <g>
       <use style="stroke:#000000;stroke-width:0.8;" x="224.867891" xlink:href="#m198d140be5" y="162.432"/>
      </g>
     </g>
    </g>
   </g>
   <g id="matplotlib.axis_4">
    <g id="ytick_7">
     <g id="line2d_11">
      <g>
       <use style="stroke:#000000;stroke-width:0.8;" x="150.761739" xlink:href="#m0801c6b9f7" y="162.432"/>
      </g>
     </g>
    </g>
    <g id="ytick_8">
     <g id="line2d_12">
      <g>
       <use style="stroke:#000000;stroke-width:0.8;" x="150.761739" xlink:href="#m0801c6b9f7" y="138.873718"/>
      </g>
     </g>
    </g>
    <g id="ytick_9">
     <g id="line2d_13">
      <g>
       <use style="stroke:#000000;stroke-width:0.8;" x="150.761739" xlink:href="#m0801c6b9f7" y="115.315436"/>
      </g>
     </g>
    </g>
    <g id="ytick_10">
     <g id="line2d_14">
      <g>
       <use style="stroke:#000000;stroke-width:0.8;" x="150.761739" xlink:href="#m0801c6b9f7" y="91.757153"/>
      </g>
     </g>
    </g>
    <g id="ytick_11">
     <g id="line2d_15">
      <g>
       <use style="stroke:#000000;stroke-width:0.8;" x="150.761739" xlink:href="#m0801c6b9f7" y="68.198871"/>
      </g>
     </g>
    </g>
    <g id="ytick_12">
     <g id="line2d_16">
      <g>
       <use style="stroke:#000000;stroke-width:0.8;" x="150.761739" xlink:href="#m0801c6b9f7" y="44.640589"/>
      </g>
     </g>
    </g>
   </g>
   <g id="patch_48">
    <path d="M 150.761739 162.432 
L 150.761739 41.472 
" style="fill:none;stroke:#000000;stroke-linecap:square;stroke-linejoin:miter;stroke-width:0.8;"/>
   </g>
   <g id="patch_49">
    <path d="M 228.396522 162.432 
L 228.396522 41.472 
" style="fill:none;stroke:#000000;stroke-linecap:square;stroke-linejoin:miter;stroke-width:0.8;"/>
   </g>
   <g id="patch_50">
    <path d="M 150.761739 162.432 
L 228.396522 162.432 
" style="fill:none;stroke:#000000;stroke-linecap:square;stroke-linejoin:miter;stroke-width:0.8;"/>
   </g>
   <g id="patch_51">
    <path d="M 150.761739 41.472 
L 228.396522 41.472 
" style="fill:none;stroke:#000000;stroke-linecap:square;stroke-linejoin:miter;stroke-width:0.8;"/>
   </g>
   <g id="text_8">
    <!-- BET -->
    <defs>
     <path d="M 9.8125 72.90625 
L 55.90625 72.90625 
L 55.90625 64.59375 
L 19.671875 64.59375 
L 19.671875 43.015625 
L 54.390625 43.015625 
L 54.390625 34.71875 
L 19.671875 34.71875 
L 19.671875 8.296875 
L 56.78125 8.296875 
L 56.78125 0 
L 9.8125 0 
z
" id="DejaVuSans-45"/>
     <path d="M -0.296875 72.90625 
L 61.375 72.90625 
L 61.375 64.59375 
L 35.5 64.59375 
L 35.5 0 
L 25.59375 0 
L 25.59375 64.59375 
L -0.296875 64.59375 
z
" id="DejaVuSans-54"/>
    </defs>
    <g transform="translate(178.00663 35.472)scale(0.12 -0.12)">
     <use xlink:href="#DejaVuSans-42"/>
     <use x="68.603516" xlink:href="#DejaVuSans-45"/>
     <use x="131.787109" xlink:href="#DejaVuSans-54"/>
    </g>
   </g>
  </g>
  <g id="axes_3">
   <g id="patch_52">
    <path d="M 243.923478 162.432 
L 321.558261 162.432 
L 321.558261 41.472 
L 243.923478 41.472 
z
" style="fill:#ffffff;"/>
   </g>
   <g id="patch_53">
    <path clip-path="url(#p687a891469)" d="M 243.923478 162.432 
L 247.805203 162.432 
L 247.805203 51.472491 
L 243.923478 51.472491 
z
" style="fill:#1f77b4;"/>
   </g>
   <g id="patch_54">
    <path clip-path="url(#p687a891469)" d="M 247.805203 162.432 
L 251.686928 162.432 
L 251.686928 162.196417 
L 247.805203 162.196417 
z
" style="fill:#1f77b4;"/>
   </g>
   <g id="patch_55">
    <path clip-path="url(#p687a891469)" d="M 251.686928 162.432 
L 255.568653 162.432 
L 255.568653 162.196417 
L 251.686928 162.196417 
z
" style="fill:#1f77b4;"/>
   </g>
   <g id="patch_56">
    <path clip-path="url(#p687a891469)" d="M 255.568653 162.432 
L 259.450377 162.432 
L 259.450377 162.432 
L 255.568653 162.432 
z
" style="fill:#1f77b4;"/>
   </g>
   <g id="patch_57">
    <path clip-path="url(#p687a891469)" d="M 259.450377 162.432 
L 263.332102 162.432 
L 263.332102 162.432 
L 259.450377 162.432 
z
" style="fill:#1f77b4;"/>
   </g>
   <g id="patch_58">
    <path clip-path="url(#p687a891469)" d="M 263.332102 162.432 
L 267.213827 162.432 
L 267.213827 162.432 
L 263.332102 162.432 
z
" style="fill:#1f77b4;"/>
   </g>
   <g id="patch_59">
    <path clip-path="url(#p687a891469)" d="M 267.213827 162.432 
L 271.095552 162.432 
L 271.095552 162.432 
L 267.213827 162.432 
z
" style="fill:#1f77b4;"/>
   </g>
   <g id="patch_60">
    <path clip-path="url(#p687a891469)" d="M 271.095552 162.432 
L 274.977277 162.432 
L 274.977277 161.960834 
L 271.095552 161.960834 
z
" style="fill:#1f77b4;"/>
   </g>
   <g id="patch_61">
    <path clip-path="url(#p687a891469)" d="M 274.977277 162.432 
L 278.859001 162.432 
L 278.859001 162.432 
L 274.977277 162.432 
z
" style="fill:#1f77b4;"/>
   </g>
   <g id="patch_62">
    <path clip-path="url(#p687a891469)" d="M 278.859001 162.432 
L 282.740726 162.432 
L 282.740726 162.196417 
L 278.859001 162.196417 
z
" style="fill:#1f77b4;"/>
   </g>
   <g id="patch_63">
    <path clip-path="url(#p687a891469)" d="M 282.740726 162.432 
L 286.622451 162.432 
L 286.622451 161.960834 
L 282.740726 161.960834 
z
" style="fill:#1f77b4;"/>
   </g>
   <g id="patch_64">
    <path clip-path="url(#p687a891469)" d="M 286.622451 162.432 
L 290.504176 162.432 
L 290.504176 162.432 
L 286.622451 162.432 
z
" style="fill:#1f77b4;"/>
   </g>
   <g id="patch_65">
    <path clip-path="url(#p687a891469)" d="M 290.504176 162.432 
L 294.3859 162.432 
L 294.3859 162.196417 
L 290.504176 162.196417 
z
" style="fill:#1f77b4;"/>
   </g>
   <g id="patch_66">
    <path clip-path="url(#p687a891469)" d="M 294.3859 162.432 
L 298.267625 162.432 
L 298.267625 162.432 
L 294.3859 162.432 
z
" style="fill:#1f77b4;"/>
   </g>
   <g id="patch_67">
    <path clip-path="url(#p687a891469)" d="M 298.267625 162.432 
L 302.14935 162.432 
L 302.14935 162.196417 
L 298.267625 162.196417 
z
" style="fill:#1f77b4;"/>
   </g>
   <g id="patch_68">
    <path clip-path="url(#p687a891469)" d="M 302.14935 162.432 
L 306.031075 162.432 
L 306.031075 162.432 
L 302.14935 162.432 
z
" style="fill:#1f77b4;"/>
   </g>
   <g id="patch_69">
    <path clip-path="url(#p687a891469)" d="M 306.031075 162.432 
L 309.9128 162.432 
L 309.9128 162.196417 
L 306.031075 162.196417 
z
" style="fill:#1f77b4;"/>
   </g>
   <g id="patch_70">
    <path clip-path="url(#p687a891469)" d="M 309.9128 162.432 
L 313.794524 162.432 
L 313.794524 162.196417 
L 309.9128 162.196417 
z
" style="fill:#1f77b4;"/>
   </g>
   <g id="patch_71">
    <path clip-path="url(#p687a891469)" d="M 313.794524 162.432 
L 317.676249 162.432 
L 317.676249 161.725252 
L 313.794524 161.725252 
z
" style="fill:#1f77b4;"/>
   </g>
   <g id="patch_72">
    <path clip-path="url(#p687a891469)" d="M 317.676249 162.432 
L 321.557974 162.432 
L 321.557974 158.898258 
L 317.676249 158.898258 
z
" style="fill:#1f77b4;"/>
   </g>
   <g id="matplotlib.axis_5">
    <g id="xtick_5">
     <g id="line2d_17">
      <g>
       <use style="stroke:#000000;stroke-width:0.8;" x="243.923478" xlink:href="#m198d140be5" y="162.432"/>
      </g>
     </g>
    </g>
    <g id="xtick_6">
     <g id="line2d_18">
      <g>
       <use style="stroke:#000000;stroke-width:0.8;" x="259.450435" xlink:href="#m198d140be5" y="162.432"/>
      </g>
     </g>
    </g>
    <g id="xtick_7">
     <g id="line2d_19">
      <g>
       <use style="stroke:#000000;stroke-width:0.8;" x="274.977391" xlink:href="#m198d140be5" y="162.432"/>
      </g>
     </g>
    </g>
    <g id="xtick_8">
     <g id="line2d_20">
      <g>
       <use style="stroke:#000000;stroke-width:0.8;" x="290.504348" xlink:href="#m198d140be5" y="162.432"/>
      </g>
     </g>
    </g>
    <g id="xtick_9">
     <g id="line2d_21">
      <g>
       <use style="stroke:#000000;stroke-width:0.8;" x="306.031304" xlink:href="#m198d140be5" y="162.432"/>
      </g>
     </g>
    </g>
    <g id="xtick_10">
     <g id="line2d_22">
      <g>
       <use style="stroke:#000000;stroke-width:0.8;" x="321.558261" xlink:href="#m198d140be5" y="162.432"/>
      </g>
     </g>
    </g>
   </g>
   <g id="matplotlib.axis_6">
    <g id="ytick_13">
     <g id="line2d_23">
      <g>
       <use style="stroke:#000000;stroke-width:0.8;" x="243.923478" xlink:href="#m0801c6b9f7" y="162.432"/>
      </g>
     </g>
    </g>
    <g id="ytick_14">
     <g id="line2d_24">
      <g>
       <use style="stroke:#000000;stroke-width:0.8;" x="243.923478" xlink:href="#m0801c6b9f7" y="138.873718"/>
      </g>
     </g>
    </g>
    <g id="ytick_15">
     <g id="line2d_25">
      <g>
       <use style="stroke:#000000;stroke-width:0.8;" x="243.923478" xlink:href="#m0801c6b9f7" y="115.315436"/>
      </g>
     </g>
    </g>
    <g id="ytick_16">
     <g id="line2d_26">
      <g>
       <use style="stroke:#000000;stroke-width:0.8;" x="243.923478" xlink:href="#m0801c6b9f7" y="91.757153"/>
      </g>
     </g>
    </g>
    <g id="ytick_17">
     <g id="line2d_27">
      <g>
       <use style="stroke:#000000;stroke-width:0.8;" x="243.923478" xlink:href="#m0801c6b9f7" y="68.198871"/>
      </g>
     </g>
    </g>
    <g id="ytick_18">
     <g id="line2d_28">
      <g>
       <use style="stroke:#000000;stroke-width:0.8;" x="243.923478" xlink:href="#m0801c6b9f7" y="44.640589"/>
      </g>
     </g>
    </g>
   </g>
   <g id="patch_73">
    <path d="M 243.923478 162.432 
L 243.923478 41.472 
" style="fill:none;stroke:#000000;stroke-linecap:square;stroke-linejoin:miter;stroke-width:0.8;"/>
   </g>
   <g id="patch_74">
    <path d="M 321.558261 162.432 
L 321.558261 41.472 
" style="fill:none;stroke:#000000;stroke-linecap:square;stroke-linejoin:miter;stroke-width:0.8;"/>
   </g>
   <g id="patch_75">
    <path d="M 243.923478 162.432 
L 321.558261 162.432 
" style="fill:none;stroke:#000000;stroke-linecap:square;stroke-linejoin:miter;stroke-width:0.8;"/>
   </g>
   <g id="patch_76">
    <path d="M 243.923478 41.472 
L 321.558261 41.472 
" style="fill:none;stroke:#000000;stroke-linecap:square;stroke-linejoin:miter;stroke-width:0.8;"/>
   </g>
   <g id="text_9">
    <!-- DOL -->
    <defs>
     <path d="M 19.671875 64.796875 
L 19.671875 8.109375 
L 31.59375 8.109375 
Q 46.6875 8.109375 53.6875 14.9375 
Q 60.6875 21.78125 60.6875 36.53125 
Q 60.6875 51.171875 53.6875 57.984375 
Q 46.6875 64.796875 31.59375 64.796875 
z
M 9.8125 72.90625 
L 30.078125 72.90625 
Q 51.265625 72.90625 61.171875 64.09375 
Q 71.09375 55.28125 71.09375 36.53125 
Q 71.09375 17.671875 61.125 8.828125 
Q 51.171875 0 30.078125 0 
L 9.8125 0 
z
" id="DejaVuSans-44"/>
     <path d="M 39.40625 66.21875 
Q 28.65625 66.21875 22.328125 58.203125 
Q 16.015625 50.203125 16.015625 36.375 
Q 16.015625 22.609375 22.328125 14.59375 
Q 28.65625 6.59375 39.40625 6.59375 
Q 50.140625 6.59375 56.421875 14.59375 
Q 62.703125 22.609375 62.703125 36.375 
Q 62.703125 50.203125 56.421875 58.203125 
Q 50.140625 66.21875 39.40625 66.21875 
M 39.40625 74.21875 
Q 54.734375 74.21875 63.90625 63.9375 
Q 73.09375 53.65625 73.09375 36.375 
Q 73.09375 19.140625 63.90625 8.859375 
Q 54.734375 -1.421875 39.40625 -1.421875 
Q 24.03125 -1.421875 14.8125 8.828125 
Q 5.609375 19.09375 5.609375 36.375 
Q 5.609375 53.65625 14.8125 63.9375 
Q 24.03125 74.21875 39.40625 74.21875 
" id="DejaVuSans-4f"/>
    </defs>
    <g transform="translate(270.05462 35.472)scale(0.12 -0.12)">
     <use xlink:href="#DejaVuSans-44"/>
     <use x="77.001953" xlink:href="#DejaVuSans-4f"/>
     <use x="155.712891" xlink:href="#DejaVuSans-4c"/>
    </g>
   </g>
  </g>
  <g id="axes_4">
   <g id="patch_77">
    <path d="M 337.085217 162.432 
L 414.72 162.432 
L 414.72 41.472 
L 337.085217 41.472 
z
" style="fill:#ffffff;"/>
   </g>
   <g id="patch_78">
    <path clip-path="url(#paf29b7d705)" d="M 340.614071 162.432 
L 344.142925 162.432 
L 344.142925 47.232 
L 340.614071 47.232 
z
" style="fill:#1f77b4;"/>
   </g>
   <g id="patch_79">
    <path clip-path="url(#paf29b7d705)" d="M 344.142925 162.432 
L 347.671779 162.432 
L 347.671779 162.432 
L 344.142925 162.432 
z
" style="fill:#1f77b4;"/>
   </g>
   <g id="patch_80">
    <path clip-path="url(#paf29b7d705)" d="M 347.671779 162.432 
L 351.200632 162.432 
L 351.200632 162.432 
L 347.671779 162.432 
z
" style="fill:#1f77b4;"/>
   </g>
   <g id="patch_81">
    <path clip-path="url(#paf29b7d705)" d="M 351.200632 162.432 
L 354.729486 162.432 
L 354.729486 162.432 
L 351.200632 162.432 
z
" style="fill:#1f77b4;"/>
   </g>
   <g id="patch_82">
    <path clip-path="url(#paf29b7d705)" d="M 354.729486 162.432 
L 358.25834 162.432 
L 358.25834 162.432 
L 354.729486 162.432 
z
" style="fill:#1f77b4;"/>
   </g>
   <g id="patch_83">
    <path clip-path="url(#paf29b7d705)" d="M 358.25834 162.432 
L 361.787194 162.432 
L 361.787194 162.432 
L 358.25834 162.432 
z
" style="fill:#1f77b4;"/>
   </g>
   <g id="patch_84">
    <path clip-path="url(#paf29b7d705)" d="M 361.787194 162.432 
L 365.316047 162.432 
L 365.316047 162.432 
L 361.787194 162.432 
z
" style="fill:#1f77b4;"/>
   </g>
   <g id="patch_85">
    <path clip-path="url(#paf29b7d705)" d="M 365.316047 162.432 
L 368.844901 162.432 
L 368.844901 162.432 
L 365.316047 162.432 
z
" style="fill:#1f77b4;"/>
   </g>
   <g id="patch_86">
    <path clip-path="url(#paf29b7d705)" d="M 368.844901 162.432 
L 372.373755 162.432 
L 372.373755 162.432 
L 368.844901 162.432 
z
" style="fill:#1f77b4;"/>
   </g>
   <g id="patch_87">
    <path clip-path="url(#paf29b7d705)" d="M 372.373755 162.432 
L 375.902609 162.432 
L 375.902609 162.432 
L 372.373755 162.432 
z
" style="fill:#1f77b4;"/>
   </g>
   <g id="patch_88">
    <path clip-path="url(#paf29b7d705)" d="M 375.902609 162.432 
L 379.431462 162.432 
L 379.431462 162.432 
L 375.902609 162.432 
z
" style="fill:#1f77b4;"/>
   </g>
   <g id="patch_89">
    <path clip-path="url(#paf29b7d705)" d="M 379.431462 162.432 
L 382.960316 162.432 
L 382.960316 162.432 
L 379.431462 162.432 
z
" style="fill:#1f77b4;"/>
   </g>
   <g id="patch_90">
    <path clip-path="url(#paf29b7d705)" d="M 382.960316 162.432 
L 386.48917 162.432 
L 386.48917 162.432 
L 382.960316 162.432 
z
" style="fill:#1f77b4;"/>
   </g>
   <g id="patch_91">
    <path clip-path="url(#paf29b7d705)" d="M 386.48917 162.432 
L 390.018024 162.432 
L 390.018024 162.432 
L 386.48917 162.432 
z
" style="fill:#1f77b4;"/>
   </g>
   <g id="patch_92">
    <path clip-path="url(#paf29b7d705)" d="M 390.018024 162.432 
L 393.546877 162.432 
L 393.546877 162.432 
L 390.018024 162.432 
z
" style="fill:#1f77b4;"/>
   </g>
   <g id="patch_93">
    <path clip-path="url(#paf29b7d705)" d="M 393.546877 162.432 
L 397.075731 162.432 
L 397.075731 162.432 
L 393.546877 162.432 
z
" style="fill:#1f77b4;"/>
   </g>
   <g id="patch_94">
    <path clip-path="url(#paf29b7d705)" d="M 397.075731 162.432 
L 400.604585 162.432 
L 400.604585 162.196417 
L 397.075731 162.196417 
z
" style="fill:#1f77b4;"/>
   </g>
   <g id="patch_95">
    <path clip-path="url(#paf29b7d705)" d="M 400.604585 162.432 
L 404.133439 162.432 
L 404.133439 162.432 
L 400.604585 162.432 
z
" style="fill:#1f77b4;"/>
   </g>
   <g id="patch_96">
    <path clip-path="url(#paf29b7d705)" d="M 404.133439 162.432 
L 407.662292 162.432 
L 407.662292 162.196417 
L 404.133439 162.196417 
z
" style="fill:#1f77b4;"/>
   </g>
   <g id="patch_97">
    <path clip-path="url(#paf29b7d705)" d="M 407.662292 162.432 
L 411.191146 162.432 
L 411.191146 160.311755 
L 407.662292 160.311755 
z
" style="fill:#1f77b4;"/>
   </g>
   <g id="matplotlib.axis_7">
    <g id="xtick_11">
     <g id="line2d_29">
      <g>
       <use style="stroke:#000000;stroke-width:0.8;" x="340.614071" xlink:href="#m198d140be5" y="162.432"/>
      </g>
     </g>
    </g>
    <g id="xtick_12">
     <g id="line2d_30">
      <g>
       <use style="stroke:#000000;stroke-width:0.8;" x="411.191146" xlink:href="#m198d140be5" y="162.432"/>
      </g>
     </g>
    </g>
   </g>
   <g id="matplotlib.axis_8">
    <g id="ytick_19">
     <g id="line2d_31">
      <g>
       <use style="stroke:#000000;stroke-width:0.8;" x="337.085217" xlink:href="#m0801c6b9f7" y="162.432"/>
      </g>
     </g>
    </g>
    <g id="ytick_20">
     <g id="line2d_32">
      <g>
       <use style="stroke:#000000;stroke-width:0.8;" x="337.085217" xlink:href="#m0801c6b9f7" y="138.873718"/>
      </g>
     </g>
    </g>
    <g id="ytick_21">
     <g id="line2d_33">
      <g>
       <use style="stroke:#000000;stroke-width:0.8;" x="337.085217" xlink:href="#m0801c6b9f7" y="115.315436"/>
      </g>
     </g>
    </g>
    <g id="ytick_22">
     <g id="line2d_34">
      <g>
       <use style="stroke:#000000;stroke-width:0.8;" x="337.085217" xlink:href="#m0801c6b9f7" y="91.757153"/>
      </g>
     </g>
    </g>
    <g id="ytick_23">
     <g id="line2d_35">
      <g>
       <use style="stroke:#000000;stroke-width:0.8;" x="337.085217" xlink:href="#m0801c6b9f7" y="68.198871"/>
      </g>
     </g>
    </g>
    <g id="ytick_24">
     <g id="line2d_36">
      <g>
       <use style="stroke:#000000;stroke-width:0.8;" x="337.085217" xlink:href="#m0801c6b9f7" y="44.640589"/>
      </g>
     </g>
    </g>
   </g>
   <g id="patch_98">
    <path d="M 337.085217 162.432 
L 337.085217 41.472 
" style="fill:none;stroke:#000000;stroke-linecap:square;stroke-linejoin:miter;stroke-width:0.8;"/>
   </g>
   <g id="patch_99">
    <path d="M 414.72 162.432 
L 414.72 41.472 
" style="fill:none;stroke:#000000;stroke-linecap:square;stroke-linejoin:miter;stroke-width:0.8;"/>
   </g>
   <g id="patch_100">
    <path d="M 337.085217 162.432 
L 414.72 162.432 
" style="fill:none;stroke:#000000;stroke-linecap:square;stroke-linejoin:miter;stroke-width:0.8;"/>
   </g>
   <g id="patch_101">
    <path d="M 337.085217 41.472 
L 414.72 41.472 
" style="fill:none;stroke:#000000;stroke-linecap:square;stroke-linejoin:miter;stroke-width:0.8;"/>
   </g>
   <g id="text_10">
    <!-- LAG -->
    <defs>
     <path d="M 59.515625 10.40625 
L 59.515625 29.984375 
L 43.40625 29.984375 
L 43.40625 38.09375 
L 69.28125 38.09375 
L 69.28125 6.78125 
Q 63.578125 2.734375 56.6875 0.65625 
Q 49.8125 -1.421875 42 -1.421875 
Q 24.90625 -1.421875 15.25 8.5625 
Q 5.609375 18.5625 5.609375 36.375 
Q 5.609375 54.25 15.25 64.234375 
Q 24.90625 74.21875 42 74.21875 
Q 49.125 74.21875 55.546875 72.453125 
Q 61.96875 70.703125 67.390625 67.28125 
L 67.390625 56.78125 
Q 61.921875 61.421875 55.765625 63.765625 
Q 49.609375 66.109375 42.828125 66.109375 
Q 29.4375 66.109375 22.71875 58.640625 
Q 16.015625 51.171875 16.015625 36.375 
Q 16.015625 21.625 22.71875 14.15625 
Q 29.4375 6.6875 42.828125 6.6875 
Q 48.046875 6.6875 52.140625 7.59375 
Q 56.25 8.5 59.515625 10.40625 
" id="DejaVuSans-47"/>
    </defs>
    <g transform="translate(363.805109 35.472)scale(0.12 -0.12)">
     <use xlink:href="#DejaVuSans-4c"/>
     <use x="55.744141" xlink:href="#DejaVuSans-41"/>
     <use x="124.136719" xlink:href="#DejaVuSans-47"/>
    </g>
   </g>
  </g>
  <g id="axes_5">
   <g id="patch_102">
    <path d="M 57.6 307.584 
L 135.234783 307.584 
L 135.234783 186.624 
L 57.6 186.624 
z
" style="fill:#ffffff;"/>
   </g>
   <g id="patch_103">
    <path clip-path="url(#p08cc565b79)" d="M 61.128854 307.584 
L 64.657708 307.584 
L 64.657708 209.603368 
L 61.128854 209.603368 
z
" style="fill:#1f77b4;"/>
   </g>
   <g id="patch_104">
    <path clip-path="url(#p08cc565b79)" d="M 64.657708 307.584 
L 68.186561 307.584 
L 68.186561 304.916211 
L 64.657708 304.916211 
z
" style="fill:#1f77b4;"/>
   </g>
   <g id="patch_105">
    <path clip-path="url(#p08cc565b79)" d="M 68.186561 307.584 
L 71.715415 307.584 
L 71.715415 306.856421 
L 68.186561 306.856421 
z
" style="fill:#1f77b4;"/>
   </g>
   <g id="patch_106">
    <path clip-path="url(#p08cc565b79)" d="M 71.715415 307.584 
L 75.244269 307.584 
L 75.244269 307.098947 
L 71.715415 307.098947 
z
" style="fill:#1f77b4;"/>
   </g>
   <g id="patch_107">
    <path clip-path="url(#p08cc565b79)" d="M 75.244269 307.584 
L 78.773123 307.584 
L 78.773123 306.856421 
L 75.244269 306.856421 
z
" style="fill:#1f77b4;"/>
   </g>
   <g id="patch_108">
    <path clip-path="url(#p08cc565b79)" d="M 78.773123 307.584 
L 82.301976 307.584 
L 82.301976 306.128842 
L 78.773123 306.128842 
z
" style="fill:#1f77b4;"/>
   </g>
   <g id="patch_109">
    <path clip-path="url(#p08cc565b79)" d="M 82.301976 307.584 
L 85.83083 307.584 
L 85.83083 307.341474 
L 82.301976 307.341474 
z
" style="fill:#1f77b4;"/>
   </g>
   <g id="patch_110">
    <path clip-path="url(#p08cc565b79)" d="M 85.83083 307.584 
L 89.359684 307.584 
L 89.359684 307.098947 
L 85.83083 307.098947 
z
" style="fill:#1f77b4;"/>
   </g>
   <g id="patch_111">
    <path clip-path="url(#p08cc565b79)" d="M 89.359684 307.584 
L 92.888538 307.584 
L 92.888538 306.856421 
L 89.359684 306.856421 
z
" style="fill:#1f77b4;"/>
   </g>
   <g id="patch_112">
    <path clip-path="url(#p08cc565b79)" d="M 92.888538 307.584 
L 96.417391 307.584 
L 96.417391 307.584 
L 92.888538 307.584 
z
" style="fill:#1f77b4;"/>
   </g>
   <g id="patch_113">
    <path clip-path="url(#p08cc565b79)" d="M 96.417391 307.584 
L 99.946245 307.584 
L 99.946245 307.584 
L 96.417391 307.584 
z
" style="fill:#1f77b4;"/>
   </g>
   <g id="patch_114">
    <path clip-path="url(#p08cc565b79)" d="M 99.946245 307.584 
L 103.475099 307.584 
L 103.475099 307.098947 
L 99.946245 307.098947 
z
" style="fill:#1f77b4;"/>
   </g>
   <g id="patch_115">
    <path clip-path="url(#p08cc565b79)" d="M 103.475099 307.584 
L 107.003953 307.584 
L 107.003953 307.341474 
L 103.475099 307.341474 
z
" style="fill:#1f77b4;"/>
   </g>
   <g id="patch_116">
    <path clip-path="url(#p08cc565b79)" d="M 107.003953 307.584 
L 110.532806 307.584 
L 110.532806 307.341474 
L 107.003953 307.341474 
z
" style="fill:#1f77b4;"/>
   </g>
   <g id="patch_117">
    <path clip-path="url(#p08cc565b79)" d="M 110.532806 307.584 
L 114.06166 307.584 
L 114.06166 306.856421 
L 110.532806 306.856421 
z
" style="fill:#1f77b4;"/>
   </g>
   <g id="patch_118">
    <path clip-path="url(#p08cc565b79)" d="M 114.06166 307.584 
L 117.590514 307.584 
L 117.590514 307.341474 
L 114.06166 307.341474 
z
" style="fill:#1f77b4;"/>
   </g>
   <g id="patch_119">
    <path clip-path="url(#p08cc565b79)" d="M 117.590514 307.584 
L 121.119368 307.584 
L 121.119368 306.856421 
L 117.590514 306.856421 
z
" style="fill:#1f77b4;"/>
   </g>
   <g id="patch_120">
    <path clip-path="url(#p08cc565b79)" d="M 121.119368 307.584 
L 124.648221 307.584 
L 124.648221 307.341474 
L 121.119368 307.341474 
z
" style="fill:#1f77b4;"/>
   </g>
   <g id="patch_121">
    <path clip-path="url(#p08cc565b79)" d="M 124.648221 307.584 
L 128.177075 307.584 
L 128.177075 306.371368 
L 124.648221 306.371368 
z
" style="fill:#1f77b4;"/>
   </g>
   <g id="patch_122">
    <path clip-path="url(#p08cc565b79)" d="M 128.177075 307.584 
L 131.705929 307.584 
L 131.705929 295.942737 
L 128.177075 295.942737 
z
" style="fill:#1f77b4;"/>
   </g>
   <g id="matplotlib.axis_9">
    <g id="xtick_13">
     <g id="line2d_37">
      <g>
       <use style="stroke:#000000;stroke-width:0.8;" x="61.128854" xlink:href="#m198d140be5" y="307.584"/>
      </g>
     </g>
     <g id="text_11">
      <!-- 0 -->
      <g transform="translate(57.947604 322.182437)scale(0.1 -0.1)">
       <use xlink:href="#DejaVuSans-30"/>
      </g>
     </g>
    </g>
    <g id="xtick_14">
     <g id="line2d_38">
      <g>
       <use style="stroke:#000000;stroke-width:0.8;" x="131.705954" xlink:href="#m198d140be5" y="307.584"/>
      </g>
     </g>
     <g id="text_12">
      <!-- 1 -->
      <g transform="translate(128.524704 322.182437)scale(0.1 -0.1)">
       <use xlink:href="#DejaVuSans-31"/>
      </g>
     </g>
    </g>
   </g>
   <g id="matplotlib.axis_10">
    <g id="ytick_25">
     <g id="line2d_39">
      <g>
       <use style="stroke:#000000;stroke-width:0.8;" x="57.6" xlink:href="#m0801c6b9f7" y="307.584"/>
      </g>
     </g>
     <g id="text_13">
      <!-- 0 -->
      <g transform="translate(44.2375 311.383219)scale(0.1 -0.1)">
       <use xlink:href="#DejaVuSans-30"/>
      </g>
     </g>
    </g>
    <g id="ytick_26">
     <g id="line2d_40">
      <g>
       <use style="stroke:#000000;stroke-width:0.8;" x="57.6" xlink:href="#m0801c6b9f7" y="283.331368"/>
      </g>
     </g>
     <g id="text_14">
      <!-- 100 -->
      <g transform="translate(31.5125 287.130587)scale(0.1 -0.1)">
       <use xlink:href="#DejaVuSans-31"/>
       <use x="63.623047" xlink:href="#DejaVuSans-30"/>
       <use x="127.246094" xlink:href="#DejaVuSans-30"/>
      </g>
     </g>
    </g>
    <g id="ytick_27">
     <g id="line2d_41">
      <g>
       <use style="stroke:#000000;stroke-width:0.8;" x="57.6" xlink:href="#m0801c6b9f7" y="259.078737"/>
      </g>
     </g>
     <g id="text_15">
      <!-- 200 -->
      <g transform="translate(31.5125 262.877956)scale(0.1 -0.1)">
       <use xlink:href="#DejaVuSans-32"/>
       <use x="63.623047" xlink:href="#DejaVuSans-30"/>
       <use x="127.246094" xlink:href="#DejaVuSans-30"/>
      </g>
     </g>
    </g>
    <g id="ytick_28">
     <g id="line2d_42">
      <g>
       <use style="stroke:#000000;stroke-width:0.8;" x="57.6" xlink:href="#m0801c6b9f7" y="234.826105"/>
      </g>
     </g>
     <g id="text_16">
      <!-- 300 -->
      <g transform="translate(31.5125 238.625324)scale(0.1 -0.1)">
       <use xlink:href="#DejaVuSans-33"/>
       <use x="63.623047" xlink:href="#DejaVuSans-30"/>
       <use x="127.246094" xlink:href="#DejaVuSans-30"/>
      </g>
     </g>
    </g>
    <g id="ytick_29">
     <g id="line2d_43">
      <g>
       <use style="stroke:#000000;stroke-width:0.8;" x="57.6" xlink:href="#m0801c6b9f7" y="210.573474"/>
      </g>
     </g>
     <g id="text_17">
      <!-- 400 -->
      <g transform="translate(31.5125 214.372692)scale(0.1 -0.1)">
       <use xlink:href="#DejaVuSans-34"/>
       <use x="63.623047" xlink:href="#DejaVuSans-30"/>
       <use x="127.246094" xlink:href="#DejaVuSans-30"/>
      </g>
     </g>
    </g>
    <g id="ytick_30">
     <g id="line2d_44">
      <g>
       <use style="stroke:#000000;stroke-width:0.8;" x="57.6" xlink:href="#m0801c6b9f7" y="186.320842"/>
      </g>
     </g>
     <g id="text_18">
      <!-- 500 -->
      <g transform="translate(31.5125 190.120061)scale(0.1 -0.1)">
       <use xlink:href="#DejaVuSans-35"/>
       <use x="63.623047" xlink:href="#DejaVuSans-30"/>
       <use x="127.246094" xlink:href="#DejaVuSans-30"/>
      </g>
     </g>
    </g>
   </g>
   <g id="patch_123">
    <path d="M 57.6 307.584 
L 57.6 186.624 
" style="fill:none;stroke:#000000;stroke-linecap:square;stroke-linejoin:miter;stroke-width:0.8;"/>
   </g>
   <g id="patch_124">
    <path d="M 135.234783 307.584 
L 135.234783 186.624 
" style="fill:none;stroke:#000000;stroke-linecap:square;stroke-linejoin:miter;stroke-width:0.8;"/>
   </g>
   <g id="patch_125">
    <path d="M 57.6 307.584 
L 135.234783 307.584 
" style="fill:none;stroke:#000000;stroke-linecap:square;stroke-linejoin:miter;stroke-width:0.8;"/>
   </g>
   <g id="patch_126">
    <path d="M 57.6 186.624 
L 135.234783 186.624 
" style="fill:none;stroke:#000000;stroke-linecap:square;stroke-linejoin:miter;stroke-width:0.8;"/>
   </g>
   <g id="text_19">
    <!-- NoF -->
    <defs>
     <path d="M 9.8125 72.90625 
L 23.09375 72.90625 
L 55.421875 11.921875 
L 55.421875 72.90625 
L 64.984375 72.90625 
L 64.984375 0 
L 51.703125 0 
L 19.390625 60.984375 
L 19.390625 0 
L 9.8125 0 
z
" id="DejaVuSans-4e"/>
     <path d="M 30.609375 48.390625 
Q 23.390625 48.390625 19.1875 42.75 
Q 14.984375 37.109375 14.984375 27.296875 
Q 14.984375 17.484375 19.15625 11.84375 
Q 23.34375 6.203125 30.609375 6.203125 
Q 37.796875 6.203125 41.984375 11.859375 
Q 46.1875 17.53125 46.1875 27.296875 
Q 46.1875 37.015625 41.984375 42.703125 
Q 37.796875 48.390625 30.609375 48.390625 
M 30.609375 56 
Q 42.328125 56 49.015625 48.375 
Q 55.71875 40.765625 55.71875 27.296875 
Q 55.71875 13.875 49.015625 6.21875 
Q 42.328125 -1.421875 30.609375 -1.421875 
Q 18.84375 -1.421875 12.171875 6.21875 
Q 5.515625 13.875 5.515625 27.296875 
Q 5.515625 40.765625 12.171875 48.375 
Q 18.84375 56 30.609375 56 
" id="DejaVuSans-6f"/>
     <path d="M 9.8125 72.90625 
L 51.703125 72.90625 
L 51.703125 64.59375 
L 19.671875 64.59375 
L 19.671875 43.109375 
L 48.578125 43.109375 
L 48.578125 34.8125 
L 19.671875 34.8125 
L 19.671875 0 
L 9.8125 0 
z
" id="DejaVuSans-46"/>
    </defs>
    <g transform="translate(84.806454 180.624)scale(0.12 -0.12)">
     <use xlink:href="#DejaVuSans-4e"/>
     <use x="74.804688" xlink:href="#DejaVuSans-6f"/>
     <use x="135.986328" xlink:href="#DejaVuSans-46"/>
    </g>
   </g>
  </g>
  <g id="axes_6">
   <g id="patch_127">
    <path d="M 150.761739 307.584 
L 228.396522 307.584 
L 228.396522 186.624 
L 150.761739 186.624 
z
" style="fill:#ffffff;"/>
   </g>
   <g id="patch_128">
    <path clip-path="url(#pe86feb7aab)" d="M 154.290593 307.584 
L 157.81913 307.584 
L 157.81913 198.447158 
L 154.290593 198.447158 
z
" style="fill:#1f77b4;"/>
   </g>
   <g id="patch_129">
    <path clip-path="url(#pe86feb7aab)" d="M 157.81913 307.584 
L 161.347667 307.584 
L 161.347667 305.643789 
L 157.81913 305.643789 
z
" style="fill:#1f77b4;"/>
   </g>
   <g id="patch_130">
    <path clip-path="url(#pe86feb7aab)" d="M 161.347667 307.584 
L 164.876204 307.584 
L 164.876204 306.856421 
L 161.347667 306.856421 
z
" style="fill:#1f77b4;"/>
   </g>
   <g id="patch_131">
    <path clip-path="url(#pe86feb7aab)" d="M 164.876204 307.584 
L 168.404742 307.584 
L 168.404742 307.341474 
L 164.876204 307.341474 
z
" style="fill:#1f77b4;"/>
   </g>
   <g id="patch_132">
    <path clip-path="url(#pe86feb7aab)" d="M 168.404742 307.584 
L 171.933279 307.584 
L 171.933279 306.856421 
L 168.404742 306.856421 
z
" style="fill:#1f77b4;"/>
   </g>
   <g id="patch_133">
    <path clip-path="url(#pe86feb7aab)" d="M 171.933279 307.584 
L 175.461816 307.584 
L 175.461816 307.341474 
L 171.933279 307.341474 
z
" style="fill:#1f77b4;"/>
   </g>
   <g id="patch_134">
    <path clip-path="url(#pe86feb7aab)" d="M 175.461816 307.584 
L 178.990353 307.584 
L 178.990353 307.584 
L 175.461816 307.584 
z
" style="fill:#1f77b4;"/>
   </g>
   <g id="patch_135">
    <path clip-path="url(#pe86feb7aab)" d="M 178.990353 307.584 
L 182.51889 307.584 
L 182.51889 307.341474 
L 178.990353 307.341474 
z
" style="fill:#1f77b4;"/>
   </g>
   <g id="patch_136">
    <path clip-path="url(#pe86feb7aab)" d="M 182.51889 307.584 
L 186.047428 307.584 
L 186.047428 307.584 
L 182.51889 307.584 
z
" style="fill:#1f77b4;"/>
   </g>
   <g id="patch_137">
    <path clip-path="url(#pe86feb7aab)" d="M 186.047428 307.584 
L 189.575965 307.584 
L 189.575965 307.584 
L 186.047428 307.584 
z
" style="fill:#1f77b4;"/>
   </g>
   <g id="patch_138">
    <path clip-path="url(#pe86feb7aab)" d="M 189.575965 307.584 
L 193.104502 307.584 
L 193.104502 307.584 
L 189.575965 307.584 
z
" style="fill:#1f77b4;"/>
   </g>
   <g id="patch_139">
    <path clip-path="url(#pe86feb7aab)" d="M 193.104502 307.584 
L 196.633039 307.584 
L 196.633039 307.584 
L 193.104502 307.584 
z
" style="fill:#1f77b4;"/>
   </g>
   <g id="patch_140">
    <path clip-path="url(#pe86feb7aab)" d="M 196.633039 307.584 
L 200.161576 307.584 
L 200.161576 307.584 
L 196.633039 307.584 
z
" style="fill:#1f77b4;"/>
   </g>
   <g id="patch_141">
    <path clip-path="url(#pe86feb7aab)" d="M 200.161576 307.584 
L 203.690114 307.584 
L 203.690114 307.584 
L 200.161576 307.584 
z
" style="fill:#1f77b4;"/>
   </g>
   <g id="patch_142">
    <path clip-path="url(#pe86feb7aab)" d="M 203.690114 307.584 
L 207.218651 307.584 
L 207.218651 307.341474 
L 203.690114 307.341474 
z
" style="fill:#1f77b4;"/>
   </g>
   <g id="patch_143">
    <path clip-path="url(#pe86feb7aab)" d="M 207.218651 307.584 
L 210.747188 307.584 
L 210.747188 307.341474 
L 207.218651 307.341474 
z
" style="fill:#1f77b4;"/>
   </g>
   <g id="patch_144">
    <path clip-path="url(#pe86feb7aab)" d="M 210.747188 307.584 
L 214.275725 307.584 
L 214.275725 307.341474 
L 210.747188 307.341474 
z
" style="fill:#1f77b4;"/>
   </g>
   <g id="patch_145">
    <path clip-path="url(#pe86feb7aab)" d="M 214.275725 307.584 
L 217.804262 307.584 
L 217.804262 307.584 
L 214.275725 307.584 
z
" style="fill:#1f77b4;"/>
   </g>
   <g id="patch_146">
    <path clip-path="url(#pe86feb7aab)" d="M 217.804262 307.584 
L 221.3328 307.584 
L 221.3328 307.098947 
L 217.804262 307.098947 
z
" style="fill:#1f77b4;"/>
   </g>
   <g id="patch_147">
    <path clip-path="url(#pe86feb7aab)" d="M 221.3328 307.584 
L 224.861337 307.584 
L 224.861337 300.793263 
L 221.3328 300.793263 
z
" style="fill:#1f77b4;"/>
   </g>
   <g id="matplotlib.axis_11">
    <g id="xtick_15">
     <g id="line2d_45">
      <g>
       <use style="stroke:#000000;stroke-width:0.8;" x="154.290593" xlink:href="#m198d140be5" y="307.584"/>
      </g>
     </g>
     <g id="text_20">
      <!-- 0 -->
      <g transform="translate(151.109343 322.182437)scale(0.1 -0.1)">
       <use xlink:href="#DejaVuSans-30"/>
      </g>
     </g>
    </g>
    <g id="xtick_16">
     <g id="line2d_46">
      <g>
       <use style="stroke:#000000;stroke-width:0.8;" x="224.867891" xlink:href="#m198d140be5" y="307.584"/>
      </g>
     </g>
     <g id="text_21">
      <!-- 1 -->
      <g transform="translate(221.686641 322.182437)scale(0.1 -0.1)">
       <use xlink:href="#DejaVuSans-31"/>
      </g>
     </g>
    </g>
   </g>
   <g id="matplotlib.axis_12">
    <g id="ytick_31">
     <g id="line2d_47">
      <g>
       <use style="stroke:#000000;stroke-width:0.8;" x="150.761739" xlink:href="#m0801c6b9f7" y="307.584"/>
      </g>
     </g>
    </g>
    <g id="ytick_32">
     <g id="line2d_48">
      <g>
       <use style="stroke:#000000;stroke-width:0.8;" x="150.761739" xlink:href="#m0801c6b9f7" y="283.331368"/>
      </g>
     </g>
    </g>
    <g id="ytick_33">
     <g id="line2d_49">
      <g>
       <use style="stroke:#000000;stroke-width:0.8;" x="150.761739" xlink:href="#m0801c6b9f7" y="259.078737"/>
      </g>
     </g>
    </g>
    <g id="ytick_34">
     <g id="line2d_50">
      <g>
       <use style="stroke:#000000;stroke-width:0.8;" x="150.761739" xlink:href="#m0801c6b9f7" y="234.826105"/>
      </g>
     </g>
    </g>
    <g id="ytick_35">
     <g id="line2d_51">
      <g>
       <use style="stroke:#000000;stroke-width:0.8;" x="150.761739" xlink:href="#m0801c6b9f7" y="210.573474"/>
      </g>
     </g>
    </g>
    <g id="ytick_36">
     <g id="line2d_52">
      <g>
       <use style="stroke:#000000;stroke-width:0.8;" x="150.761739" xlink:href="#m0801c6b9f7" y="186.320842"/>
      </g>
     </g>
    </g>
   </g>
   <g id="patch_148">
    <path d="M 150.761739 307.584 
L 150.761739 186.624 
" style="fill:none;stroke:#000000;stroke-linecap:square;stroke-linejoin:miter;stroke-width:0.8;"/>
   </g>
   <g id="patch_149">
    <path d="M 228.396522 307.584 
L 228.396522 186.624 
" style="fill:none;stroke:#000000;stroke-linecap:square;stroke-linejoin:miter;stroke-width:0.8;"/>
   </g>
   <g id="patch_150">
    <path d="M 150.761739 307.584 
L 228.396522 307.584 
" style="fill:none;stroke:#000000;stroke-linecap:square;stroke-linejoin:miter;stroke-width:0.8;"/>
   </g>
   <g id="patch_151">
    <path d="M 150.761739 186.624 
L 228.396522 186.624 
" style="fill:none;stroke:#000000;stroke-linecap:square;stroke-linejoin:miter;stroke-width:0.8;"/>
   </g>
   <g id="text_22">
    <!-- OTHER -->
    <defs>
     <path d="M 9.8125 72.90625 
L 19.671875 72.90625 
L 19.671875 43.015625 
L 55.515625 43.015625 
L 55.515625 72.90625 
L 65.375 72.90625 
L 65.375 0 
L 55.515625 0 
L 55.515625 34.71875 
L 19.671875 34.71875 
L 19.671875 0 
L 9.8125 0 
z
" id="DejaVuSans-48"/>
     <path d="M 44.390625 34.1875 
Q 47.5625 33.109375 50.5625 29.59375 
Q 53.5625 26.078125 56.59375 19.921875 
L 66.609375 0 
L 56 0 
L 46.6875 18.703125 
Q 43.0625 26.03125 39.671875 28.421875 
Q 36.28125 30.8125 30.421875 30.8125 
L 19.671875 30.8125 
L 19.671875 0 
L 9.8125 0 
L 9.8125 72.90625 
L 32.078125 72.90625 
Q 44.578125 72.90625 50.734375 67.671875 
Q 56.890625 62.453125 56.890625 51.90625 
Q 56.890625 45.015625 53.6875 40.46875 
Q 50.484375 35.9375 44.390625 34.1875 
M 19.671875 64.796875 
L 19.671875 38.921875 
L 32.078125 38.921875 
Q 39.203125 38.921875 42.84375 42.21875 
Q 46.484375 45.515625 46.484375 51.90625 
Q 46.484375 58.296875 42.84375 61.546875 
Q 39.203125 64.796875 32.078125 64.796875 
z
" id="DejaVuSans-52"/>
    </defs>
    <g transform="translate(168.718818 180.624)scale(0.12 -0.12)">
     <use xlink:href="#DejaVuSans-4f"/>
     <use x="78.710938" xlink:href="#DejaVuSans-54"/>
     <use x="139.794922" xlink:href="#DejaVuSans-48"/>
     <use x="214.990234" xlink:href="#DejaVuSans-45"/>
     <use x="278.173828" xlink:href="#DejaVuSans-52"/>
    </g>
   </g>
  </g>
  <g id="axes_7">
   <g id="patch_152">
    <path d="M 243.923478 307.584 
L 321.558261 307.584 
L 321.558261 186.624 
L 243.923478 186.624 
z
" style="fill:#ffffff;"/>
   </g>
   <g id="patch_153">
    <path clip-path="url(#p2d475d559a)" d="M 243.923478 307.584 
L 247.805217 307.584 
L 247.805217 192.384 
L 243.923478 192.384 
z
" style="fill:#1f77b4;"/>
   </g>
   <g id="patch_154">
    <path clip-path="url(#p2d475d559a)" d="M 247.805217 307.584 
L 251.686957 307.584 
L 251.686957 307.341474 
L 247.805217 307.341474 
z
" style="fill:#1f77b4;"/>
   </g>
   <g id="patch_155">
    <path clip-path="url(#p2d475d559a)" d="M 251.686957 307.584 
L 255.568696 307.584 
L 255.568696 307.341474 
L 251.686957 307.341474 
z
" style="fill:#1f77b4;"/>
   </g>
   <g id="patch_156">
    <path clip-path="url(#p2d475d559a)" d="M 255.568696 307.584 
L 259.450435 307.584 
L 259.450435 307.584 
L 255.568696 307.584 
z
" style="fill:#1f77b4;"/>
   </g>
   <g id="patch_157">
    <path clip-path="url(#p2d475d559a)" d="M 259.450435 307.584 
L 263.332174 307.584 
L 263.332174 307.584 
L 259.450435 307.584 
z
" style="fill:#1f77b4;"/>
   </g>
   <g id="patch_158">
    <path clip-path="url(#p2d475d559a)" d="M 263.332174 307.584 
L 267.213913 307.584 
L 267.213913 307.584 
L 263.332174 307.584 
z
" style="fill:#1f77b4;"/>
   </g>
   <g id="patch_159">
    <path clip-path="url(#p2d475d559a)" d="M 267.213913 307.584 
L 271.095652 307.584 
L 271.095652 307.584 
L 267.213913 307.584 
z
" style="fill:#1f77b4;"/>
   </g>
   <g id="patch_160">
    <path clip-path="url(#p2d475d559a)" d="M 271.095652 307.584 
L 274.977391 307.584 
L 274.977391 307.584 
L 271.095652 307.584 
z
" style="fill:#1f77b4;"/>
   </g>
   <g id="patch_161">
    <path clip-path="url(#p2d475d559a)" d="M 274.977391 307.584 
L 278.85913 307.584 
L 278.85913 307.584 
L 274.977391 307.584 
z
" style="fill:#1f77b4;"/>
   </g>
   <g id="patch_162">
    <path clip-path="url(#p2d475d559a)" d="M 278.85913 307.584 
L 282.74087 307.584 
L 282.74087 307.584 
L 278.85913 307.584 
z
" style="fill:#1f77b4;"/>
   </g>
   <g id="patch_163">
    <path clip-path="url(#p2d475d559a)" d="M 282.74087 307.584 
L 286.622609 307.584 
L 286.622609 307.584 
L 282.74087 307.584 
z
" style="fill:#1f77b4;"/>
   </g>
   <g id="patch_164">
    <path clip-path="url(#p2d475d559a)" d="M 286.622609 307.584 
L 290.504348 307.584 
L 290.504348 307.584 
L 286.622609 307.584 
z
" style="fill:#1f77b4;"/>
   </g>
   <g id="patch_165">
    <path clip-path="url(#p2d475d559a)" d="M 290.504348 307.584 
L 294.386087 307.584 
L 294.386087 307.584 
L 290.504348 307.584 
z
" style="fill:#1f77b4;"/>
   </g>
   <g id="patch_166">
    <path clip-path="url(#p2d475d559a)" d="M 294.386087 307.584 
L 298.267826 307.584 
L 298.267826 307.584 
L 294.386087 307.584 
z
" style="fill:#1f77b4;"/>
   </g>
   <g id="patch_167">
    <path clip-path="url(#p2d475d559a)" d="M 298.267826 307.584 
L 302.149565 307.584 
L 302.149565 307.584 
L 298.267826 307.584 
z
" style="fill:#1f77b4;"/>
   </g>
   <g id="patch_168">
    <path clip-path="url(#p2d475d559a)" d="M 302.149565 307.584 
L 306.031304 307.584 
L 306.031304 307.584 
L 302.149565 307.584 
z
" style="fill:#1f77b4;"/>
   </g>
   <g id="patch_169">
    <path clip-path="url(#p2d475d559a)" d="M 306.031304 307.584 
L 309.913043 307.584 
L 309.913043 307.341474 
L 306.031304 307.341474 
z
" style="fill:#1f77b4;"/>
   </g>
   <g id="patch_170">
    <path clip-path="url(#p2d475d559a)" d="M 309.913043 307.584 
L 313.794783 307.584 
L 313.794783 307.584 
L 309.913043 307.584 
z
" style="fill:#1f77b4;"/>
   </g>
   <g id="patch_171">
    <path clip-path="url(#p2d475d559a)" d="M 313.794783 307.584 
L 317.676522 307.584 
L 317.676522 307.584 
L 313.794783 307.584 
z
" style="fill:#1f77b4;"/>
   </g>
   <g id="patch_172">
    <path clip-path="url(#p2d475d559a)" d="M 317.676522 307.584 
L 321.558261 307.584 
L 321.558261 302.248421 
L 317.676522 302.248421 
z
" style="fill:#1f77b4;"/>
   </g>
   <g id="matplotlib.axis_13">
    <g id="xtick_17">
     <g id="line2d_53">
      <g>
       <use style="stroke:#000000;stroke-width:0.8;" x="243.923478" xlink:href="#m198d140be5" y="307.584"/>
      </g>
     </g>
     <g id="text_23">
      <!-- 0.0 -->
      <defs>
       <path d="M 10.6875 12.40625 
L 21 12.40625 
L 21 0 
L 10.6875 0 
z
" id="DejaVuSans-2e"/>
      </defs>
      <g transform="translate(235.971916 322.182437)scale(0.1 -0.1)">
       <use xlink:href="#DejaVuSans-30"/>
       <use x="63.623047" xlink:href="#DejaVuSans-2e"/>
       <use x="95.410156" xlink:href="#DejaVuSans-30"/>
      </g>
     </g>
    </g>
    <g id="xtick_18">
     <g id="line2d_54">
      <g>
       <use style="stroke:#000000;stroke-width:0.8;" x="259.450435" xlink:href="#m198d140be5" y="307.584"/>
      </g>
     </g>
     <g id="text_24">
      <!-- 0.2 -->
      <g transform="translate(251.498872 322.182437)scale(0.1 -0.1)">
       <use xlink:href="#DejaVuSans-30"/>
       <use x="63.623047" xlink:href="#DejaVuSans-2e"/>
       <use x="95.410156" xlink:href="#DejaVuSans-32"/>
      </g>
     </g>
    </g>
    <g id="xtick_19">
     <g id="line2d_55">
      <g>
       <use style="stroke:#000000;stroke-width:0.8;" x="274.977391" xlink:href="#m198d140be5" y="307.584"/>
      </g>
     </g>
     <g id="text_25">
      <!-- 0.4 -->
      <g transform="translate(267.025829 322.182437)scale(0.1 -0.1)">
       <use xlink:href="#DejaVuSans-30"/>
       <use x="63.623047" xlink:href="#DejaVuSans-2e"/>
       <use x="95.410156" xlink:href="#DejaVuSans-34"/>
      </g>
     </g>
    </g>
    <g id="xtick_20">
     <g id="line2d_56">
      <g>
       <use style="stroke:#000000;stroke-width:0.8;" x="290.504348" xlink:href="#m198d140be5" y="307.584"/>
      </g>
     </g>
     <g id="text_26">
      <!-- 0.6 -->
      <defs>
       <path d="M 33.015625 40.375 
Q 26.375 40.375 22.484375 35.828125 
Q 18.609375 31.296875 18.609375 23.390625 
Q 18.609375 15.53125 22.484375 10.953125 
Q 26.375 6.390625 33.015625 6.390625 
Q 39.65625 6.390625 43.53125 10.953125 
Q 47.40625 15.53125 47.40625 23.390625 
Q 47.40625 31.296875 43.53125 35.828125 
Q 39.65625 40.375 33.015625 40.375 
M 52.59375 71.296875 
L 52.59375 62.3125 
Q 48.875 64.0625 45.09375 64.984375 
Q 41.3125 65.921875 37.59375 65.921875 
Q 27.828125 65.921875 22.671875 59.328125 
Q 17.53125 52.734375 16.796875 39.40625 
Q 19.671875 43.65625 24.015625 45.921875 
Q 28.375 48.1875 33.59375 48.1875 
Q 44.578125 48.1875 50.953125 41.515625 
Q 57.328125 34.859375 57.328125 23.390625 
Q 57.328125 12.15625 50.6875 5.359375 
Q 44.046875 -1.421875 33.015625 -1.421875 
Q 20.359375 -1.421875 13.671875 8.265625 
Q 6.984375 17.96875 6.984375 36.375 
Q 6.984375 53.65625 15.1875 63.9375 
Q 23.390625 74.21875 37.203125 74.21875 
Q 40.921875 74.21875 44.703125 73.484375 
Q 48.484375 72.75 52.59375 71.296875 
" id="DejaVuSans-36"/>
      </defs>
      <g transform="translate(282.552785 322.182437)scale(0.1 -0.1)">
       <use xlink:href="#DejaVuSans-30"/>
       <use x="63.623047" xlink:href="#DejaVuSans-2e"/>
       <use x="95.410156" xlink:href="#DejaVuSans-36"/>
      </g>
     </g>
    </g>
    <g id="xtick_21">
     <g id="line2d_57">
      <g>
       <use style="stroke:#000000;stroke-width:0.8;" x="306.031304" xlink:href="#m198d140be5" y="307.584"/>
      </g>
     </g>
     <g id="text_27">
      <!-- 0.8 -->
      <defs>
       <path d="M 31.78125 34.625 
Q 24.75 34.625 20.71875 30.859375 
Q 16.703125 27.09375 16.703125 20.515625 
Q 16.703125 13.921875 20.71875 10.15625 
Q 24.75 6.390625 31.78125 6.390625 
Q 38.8125 6.390625 42.859375 10.171875 
Q 46.921875 13.96875 46.921875 20.515625 
Q 46.921875 27.09375 42.890625 30.859375 
Q 38.875 34.625 31.78125 34.625 
M 21.921875 38.8125 
Q 15.578125 40.375 12.03125 44.71875 
Q 8.5 49.078125 8.5 55.328125 
Q 8.5 64.0625 14.71875 69.140625 
Q 20.953125 74.21875 31.78125 74.21875 
Q 42.671875 74.21875 48.875 69.140625 
Q 55.078125 64.0625 55.078125 55.328125 
Q 55.078125 49.078125 51.53125 44.71875 
Q 48 40.375 41.703125 38.8125 
Q 48.828125 37.15625 52.796875 32.3125 
Q 56.78125 27.484375 56.78125 20.515625 
Q 56.78125 9.90625 50.3125 4.234375 
Q 43.84375 -1.421875 31.78125 -1.421875 
Q 19.734375 -1.421875 13.25 4.234375 
Q 6.78125 9.90625 6.78125 20.515625 
Q 6.78125 27.484375 10.78125 32.3125 
Q 14.796875 37.15625 21.921875 38.8125 
M 18.3125 54.390625 
Q 18.3125 48.734375 21.84375 45.5625 
Q 25.390625 42.390625 31.78125 42.390625 
Q 38.140625 42.390625 41.71875 45.5625 
Q 45.3125 48.734375 45.3125 54.390625 
Q 45.3125 60.0625 41.71875 63.234375 
Q 38.140625 66.40625 31.78125 66.40625 
Q 25.390625 66.40625 21.84375 63.234375 
Q 18.3125 60.0625 18.3125 54.390625 
" id="DejaVuSans-38"/>
      </defs>
      <g transform="translate(298.079742 322.182437)scale(0.1 -0.1)">
       <use xlink:href="#DejaVuSans-30"/>
       <use x="63.623047" xlink:href="#DejaVuSans-2e"/>
       <use x="95.410156" xlink:href="#DejaVuSans-38"/>
      </g>
     </g>
    </g>
    <g id="xtick_22">
     <g id="line2d_58">
      <g>
       <use style="stroke:#000000;stroke-width:0.8;" x="321.558261" xlink:href="#m198d140be5" y="307.584"/>
      </g>
     </g>
     <g id="text_28">
      <!-- 1.0 -->
      <g transform="translate(313.606698 322.182437)scale(0.1 -0.1)">
       <use xlink:href="#DejaVuSans-31"/>
       <use x="63.623047" xlink:href="#DejaVuSans-2e"/>
       <use x="95.410156" xlink:href="#DejaVuSans-30"/>
      </g>
     </g>
    </g>
   </g>
   <g id="matplotlib.axis_14">
    <g id="ytick_37">
     <g id="line2d_59">
      <g>
       <use style="stroke:#000000;stroke-width:0.8;" x="243.923478" xlink:href="#m0801c6b9f7" y="307.584"/>
      </g>
     </g>
    </g>
    <g id="ytick_38">
     <g id="line2d_60">
      <g>
       <use style="stroke:#000000;stroke-width:0.8;" x="243.923478" xlink:href="#m0801c6b9f7" y="283.331368"/>
      </g>
     </g>
    </g>
    <g id="ytick_39">
     <g id="line2d_61">
      <g>
       <use style="stroke:#000000;stroke-width:0.8;" x="243.923478" xlink:href="#m0801c6b9f7" y="259.078737"/>
      </g>
     </g>
    </g>
    <g id="ytick_40">
     <g id="line2d_62">
      <g>
       <use style="stroke:#000000;stroke-width:0.8;" x="243.923478" xlink:href="#m0801c6b9f7" y="234.826105"/>
      </g>
     </g>
    </g>
    <g id="ytick_41">
     <g id="line2d_63">
      <g>
       <use style="stroke:#000000;stroke-width:0.8;" x="243.923478" xlink:href="#m0801c6b9f7" y="210.573474"/>
      </g>
     </g>
    </g>
    <g id="ytick_42">
     <g id="line2d_64">
      <g>
       <use style="stroke:#000000;stroke-width:0.8;" x="243.923478" xlink:href="#m0801c6b9f7" y="186.320842"/>
      </g>
     </g>
    </g>
   </g>
   <g id="patch_173">
    <path d="M 243.923478 307.584 
L 243.923478 186.624 
" style="fill:none;stroke:#000000;stroke-linecap:square;stroke-linejoin:miter;stroke-width:0.8;"/>
   </g>
   <g id="patch_174">
    <path d="M 321.558261 307.584 
L 321.558261 186.624 
" style="fill:none;stroke:#000000;stroke-linecap:square;stroke-linejoin:miter;stroke-width:0.8;"/>
   </g>
   <g id="patch_175">
    <path d="M 243.923478 307.584 
L 321.558261 307.584 
" style="fill:none;stroke:#000000;stroke-linecap:square;stroke-linejoin:miter;stroke-width:0.8;"/>
   </g>
   <g id="patch_176">
    <path d="M 243.923478 186.624 
L 321.558261 186.624 
" style="fill:none;stroke:#000000;stroke-linecap:square;stroke-linejoin:miter;stroke-width:0.8;"/>
   </g>
   <g id="text_29">
    <!-- SHARK -->
    <defs>
     <path d="M 53.515625 70.515625 
L 53.515625 60.890625 
Q 47.90625 63.578125 42.921875 64.890625 
Q 37.9375 66.21875 33.296875 66.21875 
Q 25.25 66.21875 20.875 63.09375 
Q 16.5 59.96875 16.5 54.203125 
Q 16.5 49.359375 19.40625 46.890625 
Q 22.3125 44.4375 30.421875 42.921875 
L 36.375 41.703125 
Q 47.40625 39.59375 52.65625 34.296875 
Q 57.90625 29 57.90625 20.125 
Q 57.90625 9.515625 50.796875 4.046875 
Q 43.703125 -1.421875 29.984375 -1.421875 
Q 24.8125 -1.421875 18.96875 -0.25 
Q 13.140625 0.921875 6.890625 3.21875 
L 6.890625 13.375 
Q 12.890625 10.015625 18.65625 8.296875 
Q 24.421875 6.59375 29.984375 6.59375 
Q 38.421875 6.59375 43.015625 9.90625 
Q 47.609375 13.234375 47.609375 19.390625 
Q 47.609375 24.75 44.3125 27.78125 
Q 41.015625 30.8125 33.5 32.328125 
L 27.484375 33.5 
Q 16.453125 35.6875 11.515625 40.375 
Q 6.59375 45.0625 6.59375 53.421875 
Q 6.59375 63.09375 13.40625 68.65625 
Q 20.21875 74.21875 32.171875 74.21875 
Q 37.3125 74.21875 42.625 73.28125 
Q 47.953125 72.359375 53.515625 70.515625 
" id="DejaVuSans-53"/>
     <path d="M 9.8125 72.90625 
L 19.671875 72.90625 
L 19.671875 42.09375 
L 52.390625 72.90625 
L 65.09375 72.90625 
L 28.90625 38.921875 
L 67.671875 0 
L 54.6875 0 
L 19.671875 35.109375 
L 19.671875 0 
L 9.8125 0 
z
" id="DejaVuSans-4b"/>
    </defs>
    <g transform="translate(262.211495 180.624)scale(0.12 -0.12)">
     <use xlink:href="#DejaVuSans-53"/>
     <use x="63.476562" xlink:href="#DejaVuSans-48"/>
     <use x="138.671875" xlink:href="#DejaVuSans-41"/>
     <use x="207.080078" xlink:href="#DejaVuSans-52"/>
     <use x="276.5625" xlink:href="#DejaVuSans-4b"/>
    </g>
   </g>
  </g>
  <g id="axes_8">
   <g id="patch_177">
    <path d="M 337.085217 307.584 
L 414.72 307.584 
L 414.72 186.624 
L 337.085217 186.624 
z
" style="fill:#ffffff;"/>
   </g>
   <g id="patch_178">
    <path clip-path="url(#pfb2b320cc9)" d="M 340.614071 307.584 
L 344.142896 307.584 
L 344.142896 214.453895 
L 340.614071 214.453895 
z
" style="fill:#1f77b4;"/>
   </g>
   <g id="patch_179">
    <path clip-path="url(#pfb2b320cc9)" d="M 344.142896 307.584 
L 347.67172 307.584 
L 347.67172 305.401263 
L 344.142896 305.401263 
z
" style="fill:#1f77b4;"/>
   </g>
   <g id="patch_180">
    <path clip-path="url(#pfb2b320cc9)" d="M 347.67172 307.584 
L 351.200545 307.584 
L 351.200545 305.401263 
L 347.67172 305.401263 
z
" style="fill:#1f77b4;"/>
   </g>
   <g id="patch_181">
    <path clip-path="url(#pfb2b320cc9)" d="M 351.200545 307.584 
L 354.729369 307.584 
L 354.729369 307.098947 
L 351.200545 307.098947 
z
" style="fill:#1f77b4;"/>
   </g>
   <g id="patch_182">
    <path clip-path="url(#pfb2b320cc9)" d="M 354.729369 307.584 
L 358.258194 307.584 
L 358.258194 306.613895 
L 354.729369 306.613895 
z
" style="fill:#1f77b4;"/>
   </g>
   <g id="patch_183">
    <path clip-path="url(#pfb2b320cc9)" d="M 358.258194 307.584 
L 361.787018 307.584 
L 361.787018 306.613895 
L 358.258194 306.613895 
z
" style="fill:#1f77b4;"/>
   </g>
   <g id="patch_184">
    <path clip-path="url(#pfb2b320cc9)" d="M 361.787018 307.584 
L 365.315843 307.584 
L 365.315843 307.098947 
L 361.787018 307.098947 
z
" style="fill:#1f77b4;"/>
   </g>
   <g id="patch_185">
    <path clip-path="url(#pfb2b320cc9)" d="M 365.315843 307.584 
L 368.844667 307.584 
L 368.844667 307.341474 
L 365.315843 307.341474 
z
" style="fill:#1f77b4;"/>
   </g>
   <g id="patch_186">
    <path clip-path="url(#pfb2b320cc9)" d="M 368.844667 307.584 
L 372.373492 307.584 
L 372.373492 307.098947 
L 368.844667 307.098947 
z
" style="fill:#1f77b4;"/>
   </g>
   <g id="patch_187">
    <path clip-path="url(#pfb2b320cc9)" d="M 372.373492 307.584 
L 375.902316 307.584 
L 375.902316 307.584 
L 372.373492 307.584 
z
" style="fill:#1f77b4;"/>
   </g>
   <g id="patch_188">
    <path clip-path="url(#pfb2b320cc9)" d="M 375.902316 307.584 
L 379.431141 307.584 
L 379.431141 306.613895 
L 375.902316 306.613895 
z
" style="fill:#1f77b4;"/>
   </g>
   <g id="patch_189">
    <path clip-path="url(#pfb2b320cc9)" d="M 379.431141 307.584 
L 382.959965 307.584 
L 382.959965 306.856421 
L 379.431141 306.856421 
z
" style="fill:#1f77b4;"/>
   </g>
   <g id="patch_190">
    <path clip-path="url(#pfb2b320cc9)" d="M 382.959965 307.584 
L 386.48879 307.584 
L 386.48879 307.341474 
L 382.959965 307.341474 
z
" style="fill:#1f77b4;"/>
   </g>
   <g id="patch_191">
    <path clip-path="url(#pfb2b320cc9)" d="M 386.48879 307.584 
L 390.017614 307.584 
L 390.017614 307.341474 
L 386.48879 307.341474 
z
" style="fill:#1f77b4;"/>
   </g>
   <g id="patch_192">
    <path clip-path="url(#pfb2b320cc9)" d="M 390.017614 307.584 
L 393.546439 307.584 
L 393.546439 307.584 
L 390.017614 307.584 
z
" style="fill:#1f77b4;"/>
   </g>
   <g id="patch_193">
    <path clip-path="url(#pfb2b320cc9)" d="M 393.546439 307.584 
L 397.075263 307.584 
L 397.075263 307.098947 
L 393.546439 307.098947 
z
" style="fill:#1f77b4;"/>
   </g>
   <g id="patch_194">
    <path clip-path="url(#pfb2b320cc9)" d="M 397.075263 307.584 
L 400.604088 307.584 
L 400.604088 306.371368 
L 397.075263 306.371368 
z
" style="fill:#1f77b4;"/>
   </g>
   <g id="patch_195">
    <path clip-path="url(#pfb2b320cc9)" d="M 400.604088 307.584 
L 404.132912 307.584 
L 404.132912 306.613895 
L 400.604088 306.613895 
z
" style="fill:#1f77b4;"/>
   </g>
   <g id="patch_196">
    <path clip-path="url(#pfb2b320cc9)" d="M 404.132912 307.584 
L 407.661737 307.584 
L 407.661737 306.613895 
L 404.132912 306.613895 
z
" style="fill:#1f77b4;"/>
   </g>
   <g id="patch_197">
    <path clip-path="url(#pfb2b320cc9)" d="M 407.661737 307.584 
L 411.190562 307.584 
L 411.190562 293.274947 
L 407.661737 293.274947 
z
" style="fill:#1f77b4;"/>
   </g>
   <g id="matplotlib.axis_15">
    <g id="xtick_23">
     <g id="line2d_65">
      <g>
       <use style="stroke:#000000;stroke-width:0.8;" x="340.614071" xlink:href="#m198d140be5" y="307.584"/>
      </g>
     </g>
     <g id="text_30">
      <!-- 0 -->
      <g transform="translate(337.432821 322.182437)scale(0.1 -0.1)">
       <use xlink:href="#DejaVuSans-30"/>
      </g>
     </g>
    </g>
    <g id="xtick_24">
     <g id="line2d_66">
      <g>
       <use style="stroke:#000000;stroke-width:0.8;" x="411.191146" xlink:href="#m198d140be5" y="307.584"/>
      </g>
     </g>
     <g id="text_31">
      <!-- 1 -->
      <g transform="translate(408.009896 322.182437)scale(0.1 -0.1)">
       <use xlink:href="#DejaVuSans-31"/>
      </g>
     </g>
    </g>
   </g>
   <g id="matplotlib.axis_16">
    <g id="ytick_43">
     <g id="line2d_67">
      <g>
       <use style="stroke:#000000;stroke-width:0.8;" x="337.085217" xlink:href="#m0801c6b9f7" y="307.584"/>
      </g>
     </g>
    </g>
    <g id="ytick_44">
     <g id="line2d_68">
      <g>
       <use style="stroke:#000000;stroke-width:0.8;" x="337.085217" xlink:href="#m0801c6b9f7" y="283.331368"/>
      </g>
     </g>
    </g>
    <g id="ytick_45">
     <g id="line2d_69">
      <g>
       <use style="stroke:#000000;stroke-width:0.8;" x="337.085217" xlink:href="#m0801c6b9f7" y="259.078737"/>
      </g>
     </g>
    </g>
    <g id="ytick_46">
     <g id="line2d_70">
      <g>
       <use style="stroke:#000000;stroke-width:0.8;" x="337.085217" xlink:href="#m0801c6b9f7" y="234.826105"/>
      </g>
     </g>
    </g>
    <g id="ytick_47">
     <g id="line2d_71">
      <g>
       <use style="stroke:#000000;stroke-width:0.8;" x="337.085217" xlink:href="#m0801c6b9f7" y="210.573474"/>
      </g>
     </g>
    </g>
    <g id="ytick_48">
     <g id="line2d_72">
      <g>
       <use style="stroke:#000000;stroke-width:0.8;" x="337.085217" xlink:href="#m0801c6b9f7" y="186.320842"/>
      </g>
     </g>
    </g>
   </g>
   <g id="patch_198">
    <path d="M 337.085217 307.584 
L 337.085217 186.624 
" style="fill:none;stroke:#000000;stroke-linecap:square;stroke-linejoin:miter;stroke-width:0.8;"/>
   </g>
   <g id="patch_199">
    <path d="M 414.72 307.584 
L 414.72 186.624 
" style="fill:none;stroke:#000000;stroke-linecap:square;stroke-linejoin:miter;stroke-width:0.8;"/>
   </g>
   <g id="patch_200">
    <path d="M 337.085217 307.584 
L 414.72 307.584 
" style="fill:none;stroke:#000000;stroke-linecap:square;stroke-linejoin:miter;stroke-width:0.8;"/>
   </g>
   <g id="patch_201">
    <path d="M 337.085217 186.624 
L 414.72 186.624 
" style="fill:none;stroke:#000000;stroke-linecap:square;stroke-linejoin:miter;stroke-width:0.8;"/>
   </g>
   <g id="text_32">
    <!-- YFT -->
    <defs>
     <path d="M -0.203125 72.90625 
L 10.40625 72.90625 
L 30.609375 42.921875 
L 50.6875 72.90625 
L 61.28125 72.90625 
L 35.5 34.71875 
L 35.5 0 
L 25.59375 0 
L 25.59375 34.71875 
z
" id="DejaVuSans-59"/>
    </defs>
    <g transform="translate(365.123234 180.624)scale(0.12 -0.12)">
     <use xlink:href="#DejaVuSans-59"/>
     <use x="61.083984" xlink:href="#DejaVuSans-46"/>
     <use x="118.587891" xlink:href="#DejaVuSans-54"/>
    </g>
   </g>
  </g>
 </g>
 <defs>
  <clipPath id="pa5913833e5">
   <rect height="120.96" width="77.634783" x="57.6" y="41.472"/>
  </clipPath>
  <clipPath id="pf903758ba7">
   <rect height="120.96" width="77.634783" x="150.761739" y="41.472"/>
  </clipPath>
  <clipPath id="p687a891469">
   <rect height="120.96" width="77.634783" x="243.923478" y="41.472"/>
  </clipPath>
  <clipPath id="paf29b7d705">
   <rect height="120.96" width="77.634783" x="337.085217" y="41.472"/>
  </clipPath>
  <clipPath id="p08cc565b79">
   <rect height="120.96" width="77.634783" x="57.6" y="186.624"/>
  </clipPath>
  <clipPath id="pe86feb7aab">
   <rect height="120.96" width="77.634783" x="150.761739" y="186.624"/>
  </clipPath>
  <clipPath id="p2d475d559a">
   <rect height="120.96" width="77.634783" x="243.923478" y="186.624"/>
  </clipPath>
  <clipPath id="pfb2b320cc9">
   <rect height="120.96" width="77.634783" x="337.085217" y="186.624"/>
  </clipPath>
 </defs>
</svg>
